<?xml version="1.0" encoding="UTF-8" standalone="no"?>
<svg
   xmlns:dc="http://purl.org/dc/elements/1.1/"
   xmlns:cc="http://creativecommons.org/ns#"
   xmlns:rdf="http://www.w3.org/1999/02/22-rdf-syntax-ns#"
   xmlns:svg="http://www.w3.org/2000/svg"
   xmlns="http://www.w3.org/2000/svg"
   viewBox="0 0 6666.6665 2666.6667"
   height="2666.6667"
   width="6666.6665"
   xml:space="preserve"
   id="svg2"
   version="1.1"><metadata
     id="metadata8"><rdf:RDF><cc:Work
         rdf:about=""><dc:format>image/svg+xml</dc:format><dc:type
           rdf:resource="http://purl.org/dc/dcmitype/StillImage" /></cc:Work></rdf:RDF></metadata><defs
     id="defs6"><clipPath
       id="clipPath20"
       clipPathUnits="userSpaceOnUse"><path
         id="path18"
         d="M 29539.3,20000 H 0 v -7910.5 c 480.934,-235.9 1956.89,1338.9 3452.59,924.1 1822.48,-505.5 3439.42,-2170.8 4967.77,-2884.5 11.9,-5.7 24.55,-11.3 37.46,-16.9 6.58,-3.1 13.42,-5.9 20.25,-8.7 13.67,-5.9 27.84,-11.8 42.78,-18 13.92,-5.6 28.34,-11.5 43.03,-17.1 40.5,-15.9 84.8,-32.3 132.63,-49.2 27.34,-9.7 55.95,-19.7 85.57,-29.7 11.64,-3.8 23.28,-7.9 35.43,-12 17.46,-5.7 35.18,-11.6 53.4,-17.7 13.17,-4.1 26.58,-8.5 40,-12.8 10.38,-3.6 21.01,-6.9 31.64,-10.3 11.89,-3.8 24.05,-7.6 36.45,-11.5 57.71,-18.4 118.71,-37.1 182.5,-56.1 26.83,-8.2 54.17,-16.1 82.02,-24.5 23.53,-7 47.58,-13.9 71.88,-21 1.52,-0.3 3.04,-0.8 4.56,-1.3 81.75,-23.8 167.81,-48.2 257.17,-73 59.74,-16.7 120.99,-33.5 184.02,-50.5 15.69,-4.1 31.38,-8.4 47.33,-12.8 31.89,-8.4 64.04,-17.1 96.69,-25.8 29.87,-8 59.99,-15.9 90.37,-24.1 35.96,-9.5 72.36,-19.2 109.36,-28.7 178.4,-46.6 366.5,-94.5 562.7,-143.6 21.5,-5.4 43,-10.8 64.8,-16.2 152.1,-37.9 309,-76.3 470,-115.5 46.1,-11.2 92.4,-22.2 139.2,-33.5 392.9,-94.5 808.5,-192.1 1238.1,-290.7 163.7,-37.6 329.5,-75.5 497.1,-113.4 188.6,-42.5 378.9,-85.3 570.8,-128 92.1,-20.8 184.8,-41.3 277.7,-61.8 463.9,-102.9 933.2,-205.3 1398,-305.7 44.8,-9.8 89.6,-19.2 134.1,-29 71.4,-15.1 142.5,-30.4 213.4,-45.8 61.2,-13.1 122.2,-26.1 183.2,-39.2 8.1,-1.8 16,-3.6 23.8,-5.1 45.1,-9.7 89.9,-19.2 134.4,-28.7 52.7,-11.2 105.1,-22.5 157.5,-33.5 39.7,-8.5 79.5,-16.9 119,-25.4 12.6,-2.8 25.3,-5.4 37.7,-7.9 100.5,-21.5 200.7,-42.8 299.9,-63.8 3.3,-0.8 6.6,-1.3 9.9,-2 h 0.2 c 86.1,-18.2 171.7,-36.4 256.5,-54.3 44,-9.2 88,-18.5 131.6,-27.7 58.2,-12.3 115.9,-24.3 173.4,-36.3 36.7,-7.7 73.4,-15.4 109.8,-23.1 14,-3.1 27.9,-5.9 41.5,-8.7 43.1,-9 85.6,-17.9 128.1,-26.9 42.5,-8.7 84.6,-17.7 126.6,-26.4 63.3,-13 125.8,-26.1 187.8,-39.1 52.9,-11.1 105.5,-22.1 157.4,-32.8 9.2,-2.1 18,-3.9 27.1,-5.7 59.2,-12.2 118.2,-24.5 176.5,-36.6 2.7,-0.5 5.5,-1.3 8.3,-1.8 31.9,-6.4 63.8,-13 95.2,-19.7 46.3,-9.5 91.9,-18.9 137.4,-28.4 77.7,-15.9 154.2,-31.8 229.3,-47.4 8.9,-1.8 17.5,-3.6 26.4,-5.4 47.6,-9.7 94.6,-19.4 141.2,-29.2 91.6,-18.9 181.5,-37.3 269.3,-55.3 193.2,-39.4 375.9,-76.8 547,-111.9 2.8,-0.5 5.6,-1.3 8.1,-1.5 28.4,-5.7 56.5,-11.5 84.1,-17.2 60.5,-12.3 119.4,-24.3 176.9,-36.1 1.8,-0.2 3.5,-0.8 5.3,-1 24.3,-4.9 48.4,-9.7 72.2,-14.6 11.9,-2.6 23.5,-4.9 35.1,-7.2 18.3,-3.6 36.2,-7.1 54,-11 201.9,-41 378.9,-76.6 527,-106.5 9.8,-1.8 19.5,-3.9 29.1,-5.9 9.6,-1.8 18.9,-3.8 28.3,-5.6 9.4,-1.8 18.5,-3.6 27.6,-5.7 2.3,-0.2 4.3,-0.7 6.6,-1.3 13.9,-2.8 27.6,-5.3 40.7,-8.1 23.3,-4.7 45.6,-9.3 66.9,-13.4 19.7,-4.1 38.7,-7.6 56.7,-11.2 50.1,-10.3 93.1,-18.7 129.1,-25.9 5,-1 10.1,-2 14.9,-3.1 12.1,-2.5 23.5,-4.6 33.9,-6.9 4.3,-0.8 8.6,-1.5 12.7,-2.3 34.6,-6.9 55.4,-11.3 61.7,-12.3 1.3,-0.5 2.1,-0.5 2.1,-0.5 L 21502,7127.8 29539.3,5665 h 20460.6 v 14335 z" /></clipPath><linearGradient
       id="linearGradient30"
       spreadMethod="pad"
       gradientTransform="matrix(442.924,-13199.1,-13199.1,-442.924,24872.3,19848.2)"
       gradientUnits="userSpaceOnUse"
       y2="0"
       x2="1"
       y1="0"
       x1="0"><stop
         id="stop24"
         offset="0"
         style="stop-opacity:1;stop-color:#9edfeb" /><stop
         id="stop26"
         offset="0.22905"
         style="stop-opacity:1;stop-color:#9edfeb" /><stop
         id="stop28"
         offset="1"
         style="stop-opacity:1;stop-color:#d1f0f3" /></linearGradient><clipPath
       id="clipPath40"
       clipPathUnits="userSpaceOnUse"><path
         id="path38"
         d="M 50000,5879.7 V 0.101563 H 29539.4 V 5879.7 Z" /></clipPath><radialGradient
       id="radialGradient48"
       spreadMethod="pad"
       gradientTransform="matrix(11950.8,-1823.49,-1844.81,-12090.5,28678.9,6236.7)"
       gradientUnits="userSpaceOnUse"
       r="1"
       cy="0"
       cx="0"
       fy="0"
       fx="0"><stop
         id="stop44"
         offset="0"
         style="stop-opacity:1;stop-color:#c6e55b" /><stop
         id="stop46"
         offset="1"
         style="stop-opacity:1;stop-color:#82cc47" /></radialGradient><clipPath
       id="clipPath66"
       clipPathUnits="userSpaceOnUse"><path
         id="path64"
         d="m 16380.3,8087.5 -885.3,-909.7 9056.9,-718.1 -3019,3352.2 -490.5,-296.2 c 0,0 -868.1,1479.7 -1245.5,1670.6 C 18608.1,10318.5 15340,8364.6 15340,8364.6 Z" /></clipPath><linearGradient
       id="linearGradient74"
       spreadMethod="pad"
       gradientTransform="matrix(386.141,3653.49,3653.49,-386.141,19932.6,7285.8)"
       gradientUnits="userSpaceOnUse"
       y2="0"
       x2="1"
       y1="0"
       x1="0"><stop
         id="stop70"
         offset="0"
         style="stop-opacity:1;stop-color:#519b9b" /><stop
         id="stop72"
         offset="1"
         style="stop-opacity:1;stop-color:#84ca62" /></linearGradient><clipPath
       id="clipPath84"
       clipPathUnits="userSpaceOnUse"><path
         id="path82"
         d="m 19796.9,11186.3 669.6,-2072.1 575.9,401.5 c 0,0 -868.1,1479.7 -1245.5,1670.6 z" /></clipPath><linearGradient
       id="linearGradient92"
       spreadMethod="pad"
       gradientTransform="matrix(-695.726,2220.4,-2220.4,-695.726,20851.7,8972.1)"
       gradientUnits="userSpaceOnUse"
       y2="0"
       x2="1"
       y1="0"
       x1="0"><stop
         id="stop88"
         offset="0"
         style="stop-opacity:1;stop-color:#3e8154" /><stop
         id="stop90"
         offset="1"
         style="stop-opacity:1;stop-color:#6ca74f" /></linearGradient><clipPath
       id="clipPath106"
       clipPathUnits="userSpaceOnUse"><path
         id="path104"
         d="m 17758.7,7766.3 c 0,0 -2846.7,1641.2 -3296.8,2075.3 -533.7,-63.5 -4008.5,-2422 -4008.5,-2422 z" /></clipPath><linearGradient
       id="linearGradient114"
       spreadMethod="pad"
       gradientTransform="matrix(-7305.31,3e-7,-3e-7,-7305.31,17758.7,8630.6)"
       gradientUnits="userSpaceOnUse"
       y2="0"
       x2="1"
       y1="0"
       x1="0"><stop
         id="stop110"
         offset="0"
         style="stop-opacity:1;stop-color:#519b9b" /><stop
         id="stop112"
         offset="1"
         style="stop-opacity:1;stop-color:#84ca62" /></linearGradient><clipPath
       id="clipPath124"
       clipPathUnits="userSpaceOnUse"><path
         id="path122"
         d="m 45649.5,5879.7 c 0,0 -2834.8,1726.9 -3263.4,2182.7 -536.2,-37.2 -4120.4,-2221.7 -4120.4,-2221.7 z" /></clipPath><linearGradient
       id="linearGradient132"
       spreadMethod="pad"
       gradientTransform="matrix(-7364.31,359.084,-359.084,-7364.31,45689,6690)"
       gradientUnits="userSpaceOnUse"
       y2="0"
       x2="1"
       y1="0"
       x1="0"><stop
         id="stop128"
         offset="0"
         style="stop-opacity:1;stop-color:#519b9b" /><stop
         id="stop130"
         offset="1"
         style="stop-opacity:1;stop-color:#84ca62" /></linearGradient><clipPath
       id="clipPath142"
       clipPathUnits="userSpaceOnUse"><path
         id="path140"
         d="M 0,12089.5 V 5351.3 c 1815.14,91 4110.45,557 6268.32,1092.5 1219.79,302.7 2395.54,627.6 3416.13,919.6 946.65,-21.8 2055.85,-79.9 3259.95,-163.9 h 0.3 c 2351,-163.7 5063.9,-424.6 7636.7,-699.9 l 3.2,-0.2 c 3815.1,-408 7321.3,-847.2 8881.8,-1047.4 h 1.1 c 24.3,-3.3 48.3,-6.4 71.8,-9.5 V 5665 l -8037.3,1462.8 -422.2,76.8 c 0,0 -0.8,0 -2.1,0.5 -6.3,1 -27.1,5.4 -61.7,12.3 -4.1,0.8 -8.1,1.5 -12.7,2.3 -10.4,2.3 -21.8,4.4 -33.9,6.9 -4.8,1.1 -9.9,2.1 -14.9,3.1 -36,7.2 -79,15.6 -129.1,25.9 -18,3.6 -37,7.4 -56.7,11.2 -21.3,4.1 -43.6,8.7 -66.9,13.4 -13.1,2.8 -26.8,5.3 -40.7,8.1 -2.3,0.6 -4.3,1.1 -6.6,1.3 -9.1,2.1 -18.2,3.9 -27.6,5.7 -9.4,1.8 -18.7,3.8 -28.3,5.6 -9.6,2 -19.5,4.1 -29.1,5.9 -148.1,29.9 -325.1,65.5 -527,106.5 -17.8,3.6 -35.7,7.2 -54,11 -11.6,2.3 -23.2,4.6 -35.1,7.2 -23.8,4.6 -47.9,9.7 -72.2,14.6 -1.8,0.2 -3.5,0.8 -5.3,1 -14.4,2.8 -28.9,5.9 -43.3,9 -29.1,5.9 -58.7,11.8 -88.6,17.9 -14.9,3.1 -29.8,6.2 -45,9.2 -27.6,5.7 -55.7,11.3 -84.1,17.2 -2.5,0.2 -5.3,1 -8.1,1.5 -42.7,8.7 -86.3,17.7 -130.6,26.7 -132.6,27.1 -271.6,55.5 -416.4,85.2 -87.8,18 -177.7,36.4 -269.3,55.3 -46.6,9.5 -93.6,19.2 -141.2,29.2 -8.9,1.8 -17.5,3.6 -26.4,5.4 -56.4,11.5 -113.6,23.3 -171.3,35.4 -19.3,4.1 -38.5,7.9 -58,12 -45.5,9.5 -91.1,18.9 -137.4,28.4 -31.4,6.4 -63.3,13.1 -95.2,19.7 -2.8,0.5 -5.6,1.3 -8.3,1.8 -58.3,12.1 -117.3,24.4 -176.5,36.6 -9.1,1.8 -17.9,3.6 -27.1,5.7 -52.1,10.7 -104.5,21.7 -157.4,32.8 -62,12.8 -124.8,25.8 -187.8,39.1 -42,8.7 -84.1,17.7 -126.6,26.4 -42.5,9 -85,17.9 -128.1,26.9 -13.6,2.8 -27.5,5.6 -41.5,8.7 -36.4,7.4 -73.1,15.1 -109.8,23.1 -57.5,12 -115.2,24 -173.4,36.3 -43.8,9.2 -87.6,18.5 -131.6,27.7 -84.8,17.9 -170.4,36.1 -256.5,54.3 h -0.2 c -3.3,0.7 -6.6,1.2 -9.9,2 -99.2,21 -1775.9,380.6 -1856.6,398.5 -92.9,20.5 -1983.9,939.2 -2076,960 -191.9,42.7 -2303.3,54.6 -2434.9,88.6 -52.2,13.4 -103.3,26.4 -153.9,39.7 -37,9.5 -73.4,19.2 -109.36,28.7 -30.38,8.2 -60.5,16.1 -90.37,24.1 -32.65,8.7 -64.8,17.4 -96.69,25.8 -15.95,4.4 -31.64,8.7 -47.33,12.8 -63.03,17.2 -124.28,34.1 -184.02,50.5 -67.08,18.7 -132.13,37.1 -194.9,55.1 -21.01,6.1 -41.78,12 -62.27,17.9 -1.52,0.5 -3.04,1 -4.56,1.3 -24.3,7.1 -48.34,14 -71.88,21 -27.85,8.4 -55.19,16.3 -82.02,24.5 -47.84,14.4 -94.16,28.5 -138.71,42.3 -14.68,4.6 -29.36,9.2 -43.79,13.8 -12.4,3.9 -24.56,7.7 -36.45,11.5 -10.63,3.4 -21.26,6.7 -31.64,10.3 -13.42,4.3 -26.83,8.7 -40,12.8 -18.22,6.1 -35.94,12 -53.4,17.7 -12.15,4.1 -23.79,8.2 -35.43,12 -29.62,10 -58.23,20 -85.57,29.7 -47.83,16.9 -92.13,33.3 -132.63,49.2 -14.69,5.6 -29.1,11.5 -43.03,17.1 -14.94,6.2 -29.11,12.1 -42.78,18 -6.83,2.8 -13.67,5.6 -20.25,8.7 -12.91,5.6 -25.56,11.2 -37.46,16.9 -538.64,251.7 -1088.42,621.2 -1654.15,1016.9 -148.33,103.4 -297.67,208.9 -448.28,314.4 -385.25,270.2 -778.6,540.9 -1181.32,784.4 -236.93,143.4 -477.39,277.4 -721.15,396.4 l -107.82,51.2 c -100.24,46.9 -200.99,91 -302.24,131.9 -180.98,73.3 -363.98,136.8 -549.02,188.3 -0.25,0 -0.51,0.2 -0.76,0.2 -1.01,0.3 -2.03,0.5 -3.03,0.8 C 1956.89,13428.4 480.934,11853.6 0,12089.5 Z" /></clipPath><linearGradient
       id="linearGradient150"
       spreadMethod="pad"
       gradientTransform="matrix(-7823.81,10986,-10986,-7823.81,14071.4,6488.7)"
       gradientUnits="userSpaceOnUse"
       y2="0"
       x2="1"
       y1="0"
       x1="0"><stop
         id="stop146"
         offset="0"
         style="stop-opacity:1;stop-color:#4a7f37" /><stop
         id="stop148"
         offset="1"
         style="stop-opacity:1;stop-color:#6ca73d" /></linearGradient><clipPath
       id="clipPath160"
       clipPathUnits="userSpaceOnUse"><path
         id="path158"
         d="M 29539.5,12833.7 V 5443.4 l -71.9,8.7 h -1 l -439.7,51.7 -8154.8,961.9 -287.3,33.8 -3.3,0.2 -20.3,2.6 c 0,0 366,237.9 940.9,625.6 114.9,77.6 2000.4,2020.7 2309.2,2247.1 3.6,2.6 7.4,5.1 11.7,7.7 140.9,88.1 724.4,255.1 1177.7,410 243.8,83.2 449.8,162.9 529.8,225.1 114.4,88.8 1273.2,1681.4 1419,1683.2 l 7.1,-1.5 c 573.8,-306.8 823.2,-366.7 823.2,-366.7 0,0 1447.6,1434 1759.7,1500.9 z" /></clipPath><linearGradient
       id="linearGradient168"
       spreadMethod="pad"
       gradientTransform="matrix(-2088.63,5025.77,5025.77,2088.63,26924,5159.5)"
       gradientUnits="userSpaceOnUse"
       y2="0"
       x2="1"
       y1="0"
       x1="0"><stop
         id="stop164"
         offset="0"
         style="stop-opacity:1;stop-color:#3e8154" /><stop
         id="stop166"
         offset="1"
         style="stop-opacity:1;stop-color:#6ca74f" /></linearGradient><clipPath
       id="clipPath178"
       clipPathUnits="userSpaceOnUse"><path
         id="path176"
         d="M 8773.21,6381.8 19922.7,5188.5 28318.5,4289.9 c 1.5,0.2 3.1,0.2 4.6,0.2 52.6,2.1 642.9,29 1216.2,125 v 1027.4 c -23.8,3.1 -48,6.2 -72.9,9.5 l -8881.8,1047.4 c -81.2,8.9 -163,17.6 -244.7,26.1 -80.8,8.4 -161.5,16.9 -242.5,25.6 -150.1,15.9 -300.7,31.5 -451.6,47.4 -11.6,1.2 -23.3,2.5 -34.9,3.6 -324.8,33.7 -651,67 -977.6,100.1 -93.1,9.5 -186.3,18.7 -279.4,27.9 -233.4,23.3 -466.5,46.1 -699.7,68.9 -197.4,19.2 -394.6,38.1 -591.5,56.6 -330.6,31.2 -660.1,61.7 -986.9,91.1 -46.6,4.1 -93.2,8.5 -139.5,12.6 -50.4,4.3 -100.5,8.7 -150.6,13.3 -63.3,5.6 -126.3,11.3 -189.3,16.6 -79.8,7 -159,13.9 -238.2,20.8 -79.2,6.6 -158.2,13.6 -237.2,20.2 -39.5,3.3 -78.7,6.7 -117.9,10 -118,9.7 -235.2,19.7 -352.1,29.2 -8.9,1 -17.8,1.5 -26.9,2.3 -185.8,15.1 -370,30 -552.8,44.3 -77.4,6.1 -154.6,12 -231.6,17.9 -37.2,2.8 -74.2,5.7 -111.4,8.5 -20,1.8 -40.2,3 -60.2,4.6 -93.4,6.9 -186.1,13.8 -278.5,20.7 -37.4,2.8 -74.9,5.4 -112.1,8.2 -37.2,2.6 -74.4,5.4 -111.4,8 -2.2,0.2 -4.5,0.5 -6.5,0.5 -35,2.3 -69.6,4.8 -104.6,7.4 -36.9,2.6 -73.9,5.1 -110.6,7.7 -2120.4,-452 -4171.19,-817.7 -4171.19,-817.7 z" /></clipPath><linearGradient
       id="linearGradient186"
       spreadMethod="pad"
       gradientTransform="matrix(-20766.1,9e-7,-9e-7,-20766.1,29539.3,5744.7)"
       gradientUnits="userSpaceOnUse"
       y2="0"
       x2="1"
       y1="0"
       x1="0"><stop
         id="stop182"
         offset="0"
         style="stop-opacity:1;stop-color:#617925" /><stop
         id="stop184"
         offset="1"
         style="stop-opacity:1;stop-color:#3a4e1f" /></linearGradient><clipPath
       id="clipPath196"
       clipPathUnits="userSpaceOnUse"><path
         id="path194"
         d="M 29539.3,4773.1 V 1991.8 c 0,0 -29139.112,642.9 -29539.3,643.9 v 2137.4 c 3371.58,259.7 6592.75,413.4 9610.47,498.9 7125.93,202.6 13090.53,-82.8 17025.03,-306.8 526.8,-30 1017.1,-60.2 1469.1,-90.2 532.6,-35 1012,-69.6 1434.7,-101.9 z" /></clipPath><radialGradient
       id="radialGradient204"
       spreadMethod="pad"
       gradientTransform="matrix(27472,-2378.88,-2406.7,-27793.3,29188.4,4888.5)"
       gradientUnits="userSpaceOnUse"
       r="1"
       cy="0"
       cx="0"
       fy="0"
       fx="0"><stop
         id="stop200"
         offset="0"
         style="stop-opacity:1;stop-color:#81cb48" /><stop
         id="stop202"
         offset="1"
         style="stop-opacity:1;stop-color:#5ba445" /></radialGradient><clipPath
       id="clipPath214"
       clipPathUnits="userSpaceOnUse"><path
         id="path212"
         d="M 0,2775.9 V 379.102 c 0,0 22057.1,1750.198 29539.3,55 V 4300.1 c -347.2,-0.7 -698.8,-3.6 -1054.2,-7.9 -761.4,-9.5 -1539.8,-26.6 -2330,-51 C 14383.2,3880.4 0,2775.9 0,2775.9 Z" /></clipPath><radialGradient
       id="radialGradient222"
       spreadMethod="pad"
       gradientTransform="matrix(11950.8,-1823.49,-1844.81,-12090.5,28678.9,6236.7)"
       gradientUnits="userSpaceOnUse"
       r="1"
       cy="0"
       cx="0"
       fy="0"
       fx="0"><stop
         id="stop218"
         offset="0"
         style="stop-opacity:1;stop-color:#c6e55b" /><stop
         id="stop220"
         offset="1"
         style="stop-opacity:1;stop-color:#82cc47" /></radialGradient><clipPath
       id="clipPath232"
       clipPathUnits="userSpaceOnUse"><path
         id="path230"
         d="M 0,1296.5 V 0 H 49999.9 V 434.102 C 27209.4,2351.8 0,1296.5 0,1296.5 Z" /></clipPath><linearGradient
       id="linearGradient240"
       spreadMethod="pad"
       gradientTransform="matrix(-17719.6,-7395.56,-7395.56,17719.6,29556.2,2549.9)"
       gradientUnits="userSpaceOnUse"
       y2="0"
       x2="1"
       y1="0"
       x1="0"><stop
         id="stop236"
         offset="0"
         style="stop-opacity:1;stop-color:#486c28" /><stop
         id="stop238"
         offset="1"
         style="stop-opacity:1;stop-color:#5f8f2d" /></linearGradient><clipPath
       id="clipPath276"
       clipPathUnits="userSpaceOnUse"><path
         id="path274"
         d="m 641.098,9298 c -713.1957,-244.3 2848.722,-720.7 4638.752,728.6 182.81,148 421.34,283.2 773.49,130.3 l 13.15,-3.6 c 85.62,-23.7 166.88,-60.6 242.9,-106.9 351.35,-214.2 1616.9,-622.5 1821.12,-652.2 990.43,-144 2313.49,64.5 3198.19,135.2 -153.8,10.3 -461.4,-14.3 -573.6,13.6 -21.7,5.4 -115,3.5 -137.1,4.1 -184.5,4.7 -228.3,9 -359.2,20.6 -53.6,4.8 -103.3,26.4 -153.9,39.7 -37,9.5 -73.4,19.2 -109.36,28.7 -30.38,8.2 -60.5,16.1 -90.37,24.1 -32.65,8.7 -64.8,17.4 -96.69,25.8 -15.95,4.4 -31.64,8.7 -47.33,12.8 -63.03,17.2 -124.28,34.1 -184.02,50.5 -67.08,18.7 -132.13,37.1 -194.9,55.1 -21.01,6.1 -41.78,12 -62.27,17.9 -1.52,0.5 -3.04,1 -4.56,1.3 -24.3,7.1 -48.34,14 -71.88,21 -27.85,8.4 -55.19,16.3 -82.02,24.5 -47.84,14.4 -94.16,28.5 -138.71,42.3 -14.68,4.6 -29.36,9.2 -43.79,13.8 -12.4,3.9 -24.56,7.7 -36.45,11.5 -10.63,3.4 -21.26,6.7 -31.64,10.3 -13.42,4.3 -26.83,8.7 -40,12.8 -18.22,6.1 -35.94,12 -53.4,17.7 -12.15,4.1 -23.79,8.2 -35.43,12 -29.62,10 -58.23,20 -85.57,29.7 -47.83,16.9 -92.13,33.3 -132.63,49.2 -14.69,5.6 -29.1,11.5 -43.03,17.1 -14.94,6.2 -29.11,12.1 -42.78,18 -6.83,2.8 -13.67,5.6 -20.25,8.7 -12.91,5.6 -25.56,11.2 -37.46,16.9 -538.64,251.7 -1088.42,621.2 -1654.15,1016.9 -148.33,103.4 -297.67,208.9 -448.28,314.4 -385.25,270.2 -778.6,540.9 -1181.32,784.4 -236.93,143.4 -477.39,277.4 -721.15,396.4 l -107.82,51.2 -302.24,131.9 1126.84,-1456.2 c 86.03,-245.4 -1631.15,577.5 -1733.06,338.5 0,0 221.28,-1388.2 -2758.082,-2408.6 z" /></clipPath><linearGradient
       id="linearGradient282"
       spreadMethod="pad"
       gradientTransform="matrix(-1541.86,5498.33,-5498.33,-1541.86,6010.49,9119.7)"
       gradientUnits="userSpaceOnUse"
       y2="0"
       x2="1"
       y1="0"
       x1="0"><stop
         id="stop278"
         offset="0"
         style="stop-opacity:1;stop-color:#508739" /><stop
         id="stop280"
         offset="1"
         style="stop-opacity:1;stop-color:#69a43d" /></linearGradient><clipPath
       id="clipPath292"
       clipPathUnits="userSpaceOnUse"><path
         id="path290"
         d="M 0,9374.9 V 5351.3 c 1815.14,91 4110.45,557 6268.32,1092.5 -445.5,290.9 -1361.55,770.8 -2723.34,919.3 C 1546.07,7581.3 644.707,8577.2 644.707,8577.2 Z" /></clipPath><linearGradient
       id="linearGradient298"
       spreadMethod="pad"
       gradientTransform="matrix(-1351.71,4820.24,-4820.24,-1351.71,2974.12,6468.3)"
       gradientUnits="userSpaceOnUse"
       y2="0"
       x2="1"
       y1="0"
       x1="0"><stop
         id="stop294"
         offset="0"
         style="stop-opacity:1;stop-color:#508739" /><stop
         id="stop296"
         offset="1"
         style="stop-opacity:1;stop-color:#69a43d" /></linearGradient><clipPath
       id="clipPath308"
       clipPathUnits="userSpaceOnUse"><path
         id="path306"
         d="m 22829.1,1994.1 c 11.6,-16.6 23.3,-33.3 34.9,-49.7 -10.1,18 -21.8,34.3 -34.9,49.7 z" /></clipPath><linearGradient
       id="linearGradient316"
       spreadMethod="pad"
       gradientTransform="matrix(-14.7368,56.491,-56.491,-14.7368,22853.9,1940.9)"
       gradientUnits="userSpaceOnUse"
       y2="0"
       x2="1"
       y1="0"
       x1="0"><stop
         id="stop312"
         offset="0"
         style="stop-opacity:1;stop-color:#527f2d" /><stop
         id="stop314"
         offset="1"
         style="stop-opacity:1;stop-color:#5ba445" /></linearGradient><clipPath
       id="clipPath326"
       clipPathUnits="userSpaceOnUse"><path
         id="path324"
         d="m 0,5351.3 c 841.207,49.3 1709.54,82.1 2622.38,119.7 1640.2,67 3358.42,116.2 5020.15,151.9 l 3.3,0.2 c 0,0 4041.07,946.9 1165.87,1035.7 -2248.08,69.4 -4240.93,105.9 -4991.91,211.5 -88.78,-46.8 -186.78,-95.3 -292.72,-145.6 h -0.25 C 2678.35,6321.6 1337.11,5821.3 0,5351.3 Z" /></clipPath><linearGradient
       id="linearGradient332"
       spreadMethod="pad"
       gradientTransform="matrix(387.675,2950.36,-2950.36,387.675,4675.01,4014.5)"
       gradientUnits="userSpaceOnUse"
       y2="0"
       x2="1"
       y1="0"
       x1="0"><stop
         id="stop328"
         offset="0"
         style="stop-opacity:1;stop-color:#5ba445" /><stop
         id="stop330"
         offset="1"
         style="stop-opacity:1;stop-color:#81cb48" /></linearGradient><clipPath
       id="clipPath342"
       clipPathUnits="userSpaceOnUse"><path
         id="path340"
         d="m 2592.73,5288.6 c -2.53,-30.2 5.82,-59.7 28.35,-83.2 -11.39,27.1 -20.76,54.8 -28.35,83.2 z" /></clipPath><linearGradient
       id="linearGradient348"
       spreadMethod="pad"
       gradientTransform="matrix(-28.7836,0,0,-28.7836,2621.08,5247)"
       gradientUnits="userSpaceOnUse"
       y2="0"
       x2="1"
       y1="0"
       x1="0"><stop
         id="stop344"
         offset="0"
         style="stop-opacity:1;stop-color:#5ba445" /><stop
         id="stop346"
         offset="1"
         style="stop-opacity:1;stop-color:#81cb48" /></linearGradient><clipPath
       id="clipPath358"
       clipPathUnits="userSpaceOnUse"><path
         id="path356"
         d="m 28068.4,4759 c -0.2,-11.5 1.1,-23.3 3.6,-35.3 -1,11.8 -2.3,23.5 -3.6,35.3 z" /></clipPath><linearGradient
       id="linearGradient366"
       spreadMethod="pad"
       gradientTransform="matrix(-3.57281,0,0,-3.57281,28072,4741.4)"
       gradientUnits="userSpaceOnUse"
       y2="0"
       x2="1"
       y1="0"
       x1="0"><stop
         id="stop362"
         offset="0"
         style="stop-opacity:1;stop-color:#c6e55b" /><stop
         id="stop364"
         offset="1"
         style="stop-opacity:1;stop-color:#82cc47" /></linearGradient><clipPath
       id="clipPath376"
       clipPathUnits="userSpaceOnUse"><path
         id="path374"
         d="m 0,5351.3 c 841.207,49.3 1709.54,82.1 2622.38,119.7 501.76,678.3 1197.41,1399.3 1197.41,1399.3 -88.78,-46.8 -186.78,-95.3 -292.72,-145.6 h -0.25 C 2678.35,6321.6 1337.11,5821.3 0,5351.3 Z" /></clipPath><linearGradient
       id="linearGradient382"
       spreadMethod="pad"
       gradientTransform="matrix(1606.07,1546.72,-1546.72,1606.07,1666.27,5753.1)"
       gradientUnits="userSpaceOnUse"
       y2="0"
       x2="1"
       y1="0"
       x1="0"><stop
         id="stop378"
         offset="0"
         style="stop-opacity:1;stop-color:#7ec948" /><stop
         id="stop380"
         offset="1"
         style="stop-opacity:1;stop-color:#92d44c" /></linearGradient><clipPath
       id="clipPath392"
       clipPathUnits="userSpaceOnUse"><path
         id="path390"
         d="m 29539.5,5442.6 v -757.5 c -3371.6,259.7 -6598.9,418 -9616.6,503.5 -619.7,17.7 -1230.5,32 -1831.9,43.8 C 12844.8,5334.8 8313.15,5223.9 4869.94,5066.2 2844.72,4973.5 1196.39,4864.4 0.121094,4773.2 v 578.3 C 2840.91,5493.8 6857.96,6554.8 9684.07,7363.2 c 0.26,0.3 0.51,0.3 0.51,0.3 946.72,-21.8 2055.82,-79.9 3259.92,-163.9 36.7,-2.6 73.7,-5.1 110.7,-7.7 34.9,-2.5 69.6,-5.1 104.5,-7.4 2,0 4.3,-0.3 6.6,-0.5 36.9,-2.6 74.1,-5.4 111.3,-8 37.2,-2.8 74.7,-5.3 112.2,-8.1 92.4,-6.7 185,-13.6 278.4,-20.8 20,-1.5 40.2,-2.8 60.2,-4.6 37.3,-2.8 74.2,-5.6 111.4,-8.5 77,-5.8 154.2,-11.7 231.6,-17.9 182.8,-14.3 367.3,-28.9 552.8,-44.3 9.2,-0.7 17.8,-1.3 26.9,-2.3 116.9,-9.5 234.1,-19.2 352.1,-29.2 39.2,-3.3 78.4,-6.6 117.9,-10 79,-6.6 158,-13.5 237.2,-20.2 79.2,-6.7 158.5,-13.6 238.2,-20.7 63,-5.4 126,-11.1 189.3,-16.7 50.1,-4.3 100.3,-8.7 150.6,-13.3 46.4,-4.1 92.9,-8.5 139.5,-12.5 326.8,-29.5 656.4,-59.7 986.9,-91.2 197,-18.5 394.1,-37.4 591.3,-56.6 233.4,-22.8 466.5,-45.6 699.9,-68.9 93.2,-9.2 186,-18.4 279.5,-27.9 326.2,-32.8 652.5,-66.3 977.5,-100.1 11.7,-1.1 23.3,-2.3 34.9,-3.6 150.9,-15.9 301.5,-31.5 451.6,-47.4 81,-8.7 161.8,-17.2 242.5,-25.6 81.8,-8.5 163.5,-17.2 244.8,-26.1 3815,-408 7321.3,-847.1 8881.8,-1047.4 24.8,-3.3 49.1,-6.4 72.9,-9.5 z" /></clipPath><linearGradient
       id="linearGradient400"
       spreadMethod="pad"
       gradientTransform="matrix(4380.95,4380.95,4380.95,-4380.95,7364.73,-2386.8)"
       gradientUnits="userSpaceOnUse"
       y2="0"
       x2="1"
       y1="0"
       x1="0"><stop
         id="stop396"
         offset="0"
         style="stop-opacity:1;stop-color:#c6e55b" /><stop
         id="stop398"
         offset="1"
         style="stop-opacity:1;stop-color:#82cc47" /></linearGradient><clipPath
       id="clipPath410"
       clipPathUnits="userSpaceOnUse"><path
         id="path408"
         d="m 29539.5,5442.6 v -757.5 c -3371.6,259.7 -6598.9,418 -9616.6,503.5 -619.7,17.7 -1230.5,32 -1831.9,43.8 -3114.7,1070.7 -8406.42,2131.1 -8406.42,2131.1 946.72,-21.8 2055.82,-79.9 3259.92,-163.9 36.7,-2.6 73.7,-5.1 110.7,-7.7 34.9,-2.5 69.6,-5.1 104.5,-7.4 2,0 4.3,-0.3 6.6,-0.5 36.9,-2.6 74.1,-5.4 111.3,-8 37.2,-2.8 74.7,-5.3 112.2,-8.1 92.4,-6.7 185,-13.6 278.4,-20.8 20,-1.5 40.2,-2.8 60.2,-4.6 37.3,-2.8 74.2,-5.6 111.4,-8.5 77,-5.8 154.2,-11.7 231.6,-17.9 182.8,-14.3 367.3,-28.9 552.8,-44.3 9.2,-0.7 17.8,-1.3 26.9,-2.3 116.9,-9.5 234.1,-19.2 352.1,-29.2 39.2,-3.3 78.4,-6.6 117.9,-10 79,-6.6 158,-13.5 237.2,-20.2 79.2,-6.7 158.5,-13.6 238.2,-20.7 63,-5.4 126,-11.1 189.3,-16.7 50.1,-4.3 100.3,-8.7 150.6,-13.3 46.4,-4.1 92.9,-8.5 139.5,-12.5 326.8,-29.5 656.4,-59.7 986.9,-91.2 197,-18.5 394.1,-37.4 591.3,-56.6 233.4,-22.8 466.5,-45.6 699.9,-68.9 93.2,-9.2 186,-18.4 279.5,-27.9 326.2,-32.8 652.5,-66.3 977.5,-100.1 11.7,-1.1 23.3,-2.3 34.9,-3.6 150.9,-15.9 301.5,-31.5 451.6,-47.4 81,-8.7 161.8,-17.2 242.5,-25.6 81.8,-8.5 163.5,-17.2 244.8,-26.1 3815,-408 7321.3,-847.1 8881.8,-1047.4 24.8,-3.3 49.1,-6.4 72.9,-9.5 z" /></clipPath><linearGradient
       id="linearGradient418"
       spreadMethod="pad"
       gradientTransform="matrix(-29912.1,5096.42,5096.42,29912.1,31885.6,3962.5)"
       gradientUnits="userSpaceOnUse"
       y2="0"
       x2="1"
       y1="0"
       x1="0"><stop
         id="stop414"
         offset="0"
         style="stop-opacity:1;stop-color:#92d44c" /><stop
         id="stop416"
         offset="1"
         style="stop-opacity:1;stop-color:#c6e55c" /></linearGradient><clipPath
       id="clipPath428"
       clipPathUnits="userSpaceOnUse"><path
         id="path426"
         d="m 9756.88,1164.6 c 1233.62,81.7 2571.52,164.2 4008.82,245.9 109.1,160.7 164.4,369.7 145,641.5 -24.8,313.1 -250,633.8 -560.1,650.6 -221,11.9 -419.3,-203.4 -433.8,-409.5 20.7,-77.6 46.3,-153 77.4,-227.1 -61.5,64.3 -84.3,144.6 -77.4,227.1 -98.1,360.6 -106.3,749.1 -241.7,1099.9 -163.7,424.8 -670.7,790.3 -1051.3,545 -368.8,-236.9 -289.4,-795.2 -165.7,-1219.4 -56.7,203.4 -337.1,278.9 -516.7,170.6 -179.6,-108.4 -257.6,-339.7 -242.4,-551.4 14.5,-211 105,-408.1 195.5,-598.8 -232.1,129.9 -475.9,263.4 -741.2,265.5 -264.5,2.1 -551.15,-176.8 -573.24,-444.4 -11.74,-151 63.54,-292.8 176.82,-395.5 z" /></clipPath><linearGradient
       id="linearGradient434"
       spreadMethod="pad"
       gradientTransform="matrix(252.591,-4438.39,4438.39,252.591,11636.7,3685)"
       gradientUnits="userSpaceOnUse"
       y2="0"
       x2="1"
       y1="0"
       x1="0"><stop
         id="stop430"
         offset="0"
         style="stop-opacity:1;stop-color:#486c28" /><stop
         id="stop432"
         offset="1"
         style="stop-opacity:1;stop-color:#5f8f2d" /></linearGradient><clipPath
       id="clipPath444"
       clipPathUnits="userSpaceOnUse"><path
         id="path442"
         d="m 38266.8,1026.9 c 4.2,-3.9 8.6,-7.6 13.1,-11 103.7,-5.9 1908.8,-162.201 1999.8,-174.197 42.8,203.497 27.8,431.397 -26.7,630.697 -25.4,93 -66.6,190.6 -150.3,237.1 -75.4,41.9 -176.6,29.4 -239.7,-29.6 -36.6,-34.2 -58.8,-82.5 -64.1,-132.5 6.5,-35.4 11.9,-71 15.9,-106.9 -14.9,33.4 -19.9,70.6 -15.9,106.9 -92.3,506 -418.6,956.9 -841.7,1246.2 -44.9,30.6 -96.9,61 -150.1,50.7 -67.8,-13.2 -106.4,-85.7 -127,-152.4 -62.5,-203.3 -46.5,-424.7 9.2,-630.1 55.6,-205.2 149.1,-397.7 242.1,-588.8 -64.4,98.3 -166.9,170.3 -280.5,197.2 -68.9,16.3 -150.2,12.8 -199.5,-38.7 -42.8,-44.8 -49.8,-115.3 -33.2,-175.3 14.5,-52.1 43.9,-98.3 74.8,-142.6 5.3,-6.2 10,-12.8 14.1,-20 -4.7,6.6 -9.4,13.3 -14.1,20 -60.4,71.8 -189.8,70.8 -252.6,-2.7 -68,-79.7 -51,-213.5 26.4,-284 z" /></clipPath><linearGradient
       id="linearGradient452"
       spreadMethod="pad"
       gradientTransform="matrix(-583.005,2234.85,-2234.85,-583.005,39408.5,614.399)"
       gradientUnits="userSpaceOnUse"
       y2="0"
       x2="1"
       y1="0"
       x1="0"><stop
         id="stop448"
         offset="0"
         style="stop-opacity:1;stop-color:#486c28" /><stop
         id="stop450"
         offset="1"
         style="stop-opacity:1;stop-color:#5f8f2d" /></linearGradient><clipPath
       id="clipPath462"
       clipPathUnits="userSpaceOnUse"><path
         id="path460"
         d="m 22771.8,897.5 c 1256.3,-16.398 2441,-55.898 3513.4,-124.699 137.5,331.999 -34.4,811.599 -439.8,938.799 -211.9,66.5 -478.7,-37.4 -545.7,-251.6 33.7,140.4 67.3,284.9 47.4,428 -20,143.1 -106.1,286.5 -242.6,329.3 -106,33.4 -230.2,-3.4 -302,-89.3 -71.5,-85.9 -86.4,-215.9 -35.8,-316.2 -96.4,190.6 -363.5,263.5 -544.9,154.1 -181.7,-109.7 -247.2,-374.5 -144.2,-561.3 -120.9,150.3 -361.3,183.3 -517.4,70.5 -155.9,-112.4 -203.7,-353 -102.5,-517.698 -132.5,89.998 -278.3,184.198 -437.3,171.298 -121.6,-10 -236.9,-118.3 -248.6,-231.2 z" /></clipPath><linearGradient
       id="linearGradient470"
       spreadMethod="pad"
       gradientTransform="matrix(52.6626,1331.62,-1331.62,52.6626,24543.4,736.3)"
       gradientUnits="userSpaceOnUse"
       y2="0"
       x2="1"
       y1="0"
       x1="0"><stop
         id="stop466"
         offset="0"
         style="stop-opacity:1;stop-color:#486c28" /><stop
         id="stop468"
         offset="1"
         style="stop-opacity:1;stop-color:#5f8f2d" /></linearGradient><clipPath
       id="clipPath480"
       clipPathUnits="userSpaceOnUse"><path
         id="path478"
         d="m 29539.5,12833.7 v -257.4 l -489.3,-2046.4 -712.1,59.5 -558.3,743.4 c 0,0 1447.6,1434 1759.7,1500.9 z" /></clipPath><linearGradient
       id="linearGradient488"
       spreadMethod="pad"
       gradientTransform="matrix(7054.49,9603.6,9603.6,-7054.49,24117.7,5081.2)"
       gradientUnits="userSpaceOnUse"
       y2="0"
       x2="1"
       y1="0"
       x1="0"><stop
         id="stop484"
         offset="0"
         style="stop-opacity:1;stop-color:#3e8154" /><stop
         id="stop486"
         offset="1"
         style="stop-opacity:1;stop-color:#6ca74f" /></linearGradient><clipPath
       id="clipPath498"
       clipPathUnits="userSpaceOnUse"><path
         id="path496"
         d="m 26956.6,11699.5 -401.7,-3558.5 -597.6,1779.2 -956.6,-127.5 c 243.8,83.2 449.8,162.9 529.8,225.1 114.4,88.8 1273.2,1681.4 1419,1683.2 z" /></clipPath><linearGradient
       id="linearGradient506"
       spreadMethod="pad"
       gradientTransform="matrix(7071.44,9626.67,9626.67,-7071.44,23337.9,5645.3)"
       gradientUnits="userSpaceOnUse"
       y2="0"
       x2="1"
       y1="0"
       x1="0"><stop
         id="stop502"
         offset="0"
         style="stop-opacity:1;stop-color:#3e8154" /><stop
         id="stop504"
         offset="1"
         style="stop-opacity:1;stop-color:#6ca74f" /></linearGradient><clipPath
       id="clipPath516"
       clipPathUnits="userSpaceOnUse"><path
         id="path514"
         d="m 24046.7,6753 -450.8,951.6 -1303.3,-951.6 -1414.2,-284.6 -293.6,31.1 -3.3,0.2 -20.3,2.6 c 0,0 366,237.9 940.9,625.6 114.9,77.6 2000.4,2020.7 2309.2,2247.1 3.6,2.6 7.4,5.1 11.7,7.7 z" /></clipPath><linearGradient
       id="linearGradient524"
       spreadMethod="pad"
       gradientTransform="matrix(7040.39,9584.4,9584.4,-7040.39,22217,6509.3)"
       gradientUnits="userSpaceOnUse"
       y2="0"
       x2="1"
       y1="0"
       x1="0"><stop
         id="stop520"
         offset="0"
         style="stop-opacity:1;stop-color:#3e8154" /><stop
         id="stop522"
         offset="1"
         style="stop-opacity:1;stop-color:#6ca74f" /></linearGradient><clipPath
       id="clipPath534"
       clipPathUnits="userSpaceOnUse"><path
         id="path532"
         d="m 13778,1164.6 c 0,0 519.3,1348.1 1156.2,1774.4 C 13934.8,1344.9 13778,1164.6 13778,1164.6 Z" /></clipPath><linearGradient
       id="linearGradient540"
       spreadMethod="pad"
       gradientTransform="matrix(-10541.5,-4399.68,-4399.68,10541.5,16864.1,3098.5)"
       gradientUnits="userSpaceOnUse"
       y2="0"
       x2="1"
       y1="0"
       x1="0"><stop
         id="stop536"
         offset="0"
         style="stop-opacity:1;stop-color:#486c28" /><stop
         id="stop538"
         offset="1"
         style="stop-opacity:1;stop-color:#5f8f2d" /></linearGradient><clipPath
       id="clipPath550"
       clipPathUnits="userSpaceOnUse"><path
         id="path548"
         d="m 13445.3,859.699 c 0,0 875.9,1143.801 1606.1,1369.801 C 13646.1,987.699 13445.3,859.699 13445.3,859.699 Z" /></clipPath><linearGradient
       id="linearGradient556"
       spreadMethod="pad"
       gradientTransform="matrix(-10525.9,-4393.16,-4393.16,10525.9,17022.4,2705.2)"
       gradientUnits="userSpaceOnUse"
       y2="0"
       x2="1"
       y1="0"
       x1="0"><stop
         id="stop552"
         offset="0"
         style="stop-opacity:1;stop-color:#486c28" /><stop
         id="stop554"
         offset="1"
         style="stop-opacity:1;stop-color:#5f8f2d" /></linearGradient><clipPath
       id="clipPath566"
       clipPathUnits="userSpaceOnUse"><path
         id="path564"
         d="m 8824.47,2961.3 c 0,0 846.12,-1166.5 860.11,-1939 -793.74,1708.4 -860.11,1939 -860.11,1939 z" /></clipPath><linearGradient
       id="linearGradient572"
       spreadMethod="pad"
       gradientTransform="matrix(-10225.8,-4267.93,-4267.93,10225.8,15944.1,4783.8)"
       gradientUnits="userSpaceOnUse"
       y2="0"
       x2="1"
       y1="0"
       x1="0"><stop
         id="stop568"
         offset="0"
         style="stop-opacity:1;stop-color:#486c28" /><stop
         id="stop570"
         offset="1"
         style="stop-opacity:1;stop-color:#5f8f2d" /></linearGradient><clipPath
       id="clipPath582"
       clipPathUnits="userSpaceOnUse"><path
         id="path580"
         d="m 9413.35,3044.9 c 0,0 484.37,-1361.4 281.24,-2106.201 C 9412.35,2804.7 9413.35,3044.9 9413.35,3044.9 Z" /></clipPath><linearGradient
       id="linearGradient588"
       spreadMethod="pad"
       gradientTransform="matrix(-10675.4,-4455.56,-4455.56,10675.4,16275.7,4797.2)"
       gradientUnits="userSpaceOnUse"
       y2="0"
       x2="1"
       y1="0"
       x1="0"><stop
         id="stop584"
         offset="0"
         style="stop-opacity:1;stop-color:#486c28" /><stop
         id="stop586"
         offset="1"
         style="stop-opacity:1;stop-color:#5f8f2d" /></linearGradient><clipPath
       id="clipPath598"
       clipPathUnits="userSpaceOnUse"><path
         id="path596"
         d="m 26679.8,2625.3 c 0,0 30.9,-1446.5 -396,-2087.101 319.5,1859.801 396,2087.101 396,2087.101 z" /></clipPath><linearGradient
       id="linearGradient606"
       spreadMethod="pad"
       gradientTransform="matrix(-10578,-4414.91,-4414.91,10578,18755.4,-1643)"
       gradientUnits="userSpaceOnUse"
       y2="0"
       x2="1"
       y1="0"
       x1="0"><stop
         id="stop602"
         offset="0"
         style="stop-opacity:1;stop-color:#486c28" /><stop
         id="stop604"
         offset="1"
         style="stop-opacity:1;stop-color:#5f8f2d" /></linearGradient><clipPath
       id="clipPath616"
       clipPathUnits="userSpaceOnUse"><path
         id="path614"
         d="m 27209.4,2351.8 c 0,0 -375.9,-1396.101 -964.8,-1887.898 827.7,1691.798 964.8,1887.898 964.8,1887.898 z" /></clipPath><linearGradient
       id="linearGradient624"
       spreadMethod="pad"
       gradientTransform="matrix(-10548.8,-4402.7,-4402.7,10548.8,18873.5,-1870)"
       gradientUnits="userSpaceOnUse"
       y2="0"
       x2="1"
       y1="0"
       x1="0"><stop
         id="stop620"
         offset="0"
         style="stop-opacity:1;stop-color:#486c28" /><stop
         id="stop622"
         offset="1"
         style="stop-opacity:1;stop-color:#5f8f2d" /></linearGradient><clipPath
       id="clipPath634"
       clipPathUnits="userSpaceOnUse"><path
         id="path632"
         d="m 50000,3533.5 -16480.8,1151.6 -3979.8,758.3 v 882.4 L 50000,4255.7 v -711.9 z" /></clipPath><linearGradient
       id="linearGradient642"
       spreadMethod="pad"
       gradientTransform="matrix(25008.6,-2195.11,-2195.11,-25008.6,36975.5,5027.4)"
       gradientUnits="userSpaceOnUse"
       y2="0"
       x2="1"
       y1="0"
       x1="0"><stop
         id="stop638"
         offset="0"
         style="stop-opacity:1;stop-color:#4a7f37" /><stop
         id="stop640"
         offset="1"
         style="stop-opacity:1;stop-color:#6ca73d" /></linearGradient><clipPath
       id="clipPath652"
       clipPathUnits="userSpaceOnUse"><path
         id="path650"
         d="M 50000,3533.5 V 2282.6 L 29539.4,4685.1 v 758.3 L 50000,3543.8 Z" /></clipPath><linearGradient
       id="linearGradient660"
       spreadMethod="pad"
       gradientTransform="matrix(22266.2,-2587.27,-2587.27,-22266.2,29367.1,5310.6)"
       gradientUnits="userSpaceOnUse"
       y2="0"
       x2="1"
       y1="0"
       x1="0"><stop
         id="stop656"
         offset="0"
         style="stop-opacity:1;stop-color:#92d44c" /><stop
         id="stop658"
         offset="1"
         style="stop-opacity:1;stop-color:#c6e55c" /></linearGradient><clipPath
       id="clipPath670"
       clipPathUnits="userSpaceOnUse"><path
         id="path668"
         d="m 39251.2,4541.7 -1407.1,130.6 -8304.7,771.1 -170.1,6420.7 170.1,969.6 c 41.8,-9 103.5,-42 179.5,-93.3 492.8,-330.6 1580.2,-1407.6 1580.2,-1407.6 0,0 2134.8,-1226.2 2249.2,-1315 46.6,-36.1 135.5,-78.1 249.9,-123.2 82.2,-32.8 -185.3,-835.9 -83,-871 453.3,-155 1399.7,447.2 1540.7,359.1 4.3,-2.6 8.1,-5.1 11.6,-7.7 22.1,-16.1 51.7,-40.7 88.4,-73 l 0.2,-0.2 c 479.4,-420 2113.9,-2101.7 2220.7,-2173.9 574.8,-387.7 1674.4,-2586.2 1674.4,-2586.2 z" /></clipPath><linearGradient
       id="linearGradient678"
       spreadMethod="pad"
       gradientTransform="matrix(-3482.53,8379.84,8379.84,3482.53,34795.7,4029)"
       gradientUnits="userSpaceOnUse"
       y2="0"
       x2="1"
       y1="0"
       x1="0"><stop
         id="stop674"
         offset="0"
         style="stop-opacity:1;stop-color:#3e8154" /><stop
         id="stop676"
         offset="1"
         style="stop-opacity:1;stop-color:#6ca74f" /></linearGradient><clipPath
       id="clipPath688"
       clipPathUnits="userSpaceOnUse"><path
         id="path686"
         d="M 50000,2822.6 V 921.5 C 35846.7,4027 29454.8,4299.9 29454.8,4299.9 l 84.6,385.2 c 0,0 10308.1,-807.7 20460.6,-1862.5 z" /></clipPath><radialGradient
       id="radialGradient696"
       spreadMethod="pad"
       gradientTransform="matrix(27472,-2378.88,-2406.7,-27793.3,29188.4,4888.5)"
       gradientUnits="userSpaceOnUse"
       r="1"
       cy="0"
       cx="0"
       fy="0"
       fx="0"><stop
         id="stop692"
         offset="0"
         style="stop-opacity:1;stop-color:#81cb48" /><stop
         id="stop694"
         offset="1"
         style="stop-opacity:1;stop-color:#5ba445" /></radialGradient><clipPath
       id="clipPath706"
       clipPathUnits="userSpaceOnUse"><path
         id="path704"
         d="m 32730.8,5147.1 337.6,-137.8 -1711.3,-250.2 -796.9,155 -1231.9,-422.1 -362,517.3 -1378,342.1 267.6,211.3 -1373.7,182.1 -150.4,134.9 1341.1,2154.5 106.8,-834.6 27.1,489.3 1185.6,1693.8 183,-165.2 364,1380.8 1295,-2286.5 183,211.5 614,-740.1 c 0,0 1084.4,-1388 1136.6,-1599.5 52.4,-211.3 862.8,-923.2 862.8,-923.2 z" /></clipPath><linearGradient
       id="linearGradient714"
       spreadMethod="pad"
       gradientTransform="matrix(4536.44,3885.56,3885.56,-4536.44,25957.2,3109)"
       gradientUnits="userSpaceOnUse"
       y2="0"
       x2="1"
       y1="0"
       x1="0"><stop
         id="stop710"
         offset="0"
         style="stop-opacity:1;stop-color:#3e8154" /><stop
         id="stop712"
         offset="1"
         style="stop-opacity:1;stop-color:#73b354" /></linearGradient><clipPath
       id="clipPath724"
       clipPathUnits="userSpaceOnUse"><path
         id="path722"
         d="m 27855.8,5562.6 803.8,1705 -1429.1,-1622.1 z" /></clipPath><linearGradient
       id="linearGradient732"
       spreadMethod="pad"
       gradientTransform="matrix(-277.619,7244.55,7244.55,277.619,28033,4162.3)"
       gradientUnits="userSpaceOnUse"
       y2="0"
       x2="1"
       y1="0"
       x1="0"><stop
         id="stop728"
         offset="0"
         style="stop-opacity:1;stop-color:#3e8154" /><stop
         id="stop730"
         offset="1"
         style="stop-opacity:1;stop-color:#6ca74f" /></linearGradient><clipPath
       id="clipPath742"
       clipPathUnits="userSpaceOnUse"><path
         id="path740"
         d="m 28354.3,5161.2 c -6.8,1.7 706.7,1402.6 706.7,1402.6 l 267.2,-2071.8 -361.9,517.4 z" /></clipPath><linearGradient
       id="linearGradient750"
       spreadMethod="pad"
       gradientTransform="matrix(-277.544,7242.57,7242.57,277.544,28865.5,4195.2)"
       gradientUnits="userSpaceOnUse"
       y2="0"
       x2="1"
       y1="0"
       x1="0"><stop
         id="stop746"
         offset="0"
         style="stop-opacity:1;stop-color:#3e8154" /><stop
         id="stop748"
         offset="1"
         style="stop-opacity:1;stop-color:#6ca74f" /></linearGradient><clipPath
       id="clipPath760"
       clipPathUnits="userSpaceOnUse"><path
         id="path758"
         d="m 31040.5,4820.6 -441.2,1594.5 -543.1,-1673.7 503.9,172.6 z" /></clipPath><linearGradient
       id="linearGradient768"
       spreadMethod="pad"
       gradientTransform="matrix(-277.601,7244.06,7244.06,277.601,30568.3,4260.7)"
       gradientUnits="userSpaceOnUse"
       y2="0"
       x2="1"
       y1="0"
       x1="0"><stop
         id="stop764"
         offset="0"
         style="stop-opacity:1;stop-color:#3e8154" /><stop
         id="stop766"
         offset="1"
         style="stop-opacity:1;stop-color:#6ca74f" /></linearGradient><clipPath
       id="clipPath778"
       clipPathUnits="userSpaceOnUse"><path
         id="path776"
         d="m 33630.8,5260.5 -900,-113.4 -563.7,1149 -127.4,-208.2 -911.2,2012.3 -205.8,-257.6 -1383.3,2755.7 1314.7,-2246.9 163.3,171.9 614,-740.1 c 0,0 1084.4,-1388 1136.6,-1599.5 52.4,-211.3 862.8,-923.2 862.8,-923.2 z" /></clipPath><linearGradient
       id="linearGradient786"
       spreadMethod="pad"
       gradientTransform="matrix(-277.489,7241.13,7241.13,277.489,31724,4306.4)"
       gradientUnits="userSpaceOnUse"
       y2="0"
       x2="1"
       y1="0"
       x1="0"><stop
         id="stop782"
         offset="0"
         style="stop-opacity:1;stop-color:#3e8154" /><stop
         id="stop784"
         offset="1"
         style="stop-opacity:1;stop-color:#6ca74f" /></linearGradient><clipPath
       id="clipPath796"
       clipPathUnits="userSpaceOnUse"><path
         id="path794"
         d="m 29175.3,9217.5 248.2,-251.5 115.8,1632.4 z" /></clipPath><linearGradient
       id="linearGradient804"
       spreadMethod="pad"
       gradientTransform="matrix(-277.569,7243.22,7243.22,277.569,29575.2,4222.3)"
       gradientUnits="userSpaceOnUse"
       y2="0"
       x2="1"
       y1="0"
       x1="0"><stop
         id="stop800"
         offset="0"
         style="stop-opacity:1;stop-color:#3e8154" /><stop
         id="stop802"
         offset="1"
         style="stop-opacity:1;stop-color:#6ca74f" /></linearGradient><clipPath
       id="clipPath814"
       clipPathUnits="userSpaceOnUse"><path
         id="path812"
         d="m 28099.9,8107.6 -293.1,-418.7 -27.1,-489.3 200.2,372 310,807.5 z" /></clipPath><linearGradient
       id="linearGradient822"
       spreadMethod="pad"
       gradientTransform="matrix(-277.614,7244.42,7244.42,277.614,28173.6,4167.4)"
       gradientUnits="userSpaceOnUse"
       y2="0"
       x2="1"
       y1="0"
       x1="0"><stop
         id="stop818"
         offset="0"
         style="stop-opacity:1;stop-color:#3e8154" /><stop
         id="stop820"
         offset="1"
         style="stop-opacity:1;stop-color:#6ca74f" /></linearGradient><clipPath
       id="clipPath832"
       clipPathUnits="userSpaceOnUse"><path
         id="path830"
         d="m 27672.9,8034.2 -762.4,-2346.2 -428.3,56.8 -326,118.8 z" /></clipPath><linearGradient
       id="linearGradient840"
       spreadMethod="pad"
       gradientTransform="matrix(-277.601,7244.06,7244.06,277.601,27022.8,4123.2)"
       gradientUnits="userSpaceOnUse"
       y2="0"
       x2="1"
       y1="0"
       x1="0"><stop
         id="stop836"
         offset="0"
         style="stop-opacity:1;stop-color:#3e8154" /><stop
         id="stop838"
         offset="1"
         style="stop-opacity:1;stop-color:#6ca74f" /></linearGradient><clipPath
       id="clipPath850"
       clipPathUnits="userSpaceOnUse"><path
         id="path848"
         d="m 33798.2,9894.6 -1186.9,267.6 -1110.5,660.9 -952.5,257.4 -1008.9,1753.2 179.5,-93.3 c 492.8,-330.6 1580.2,-1407.6 1580.2,-1407.6 0,0 2134.8,-1226.2 2249.2,-1315 46.6,-36.1 135.5,-78.1 249.9,-123.2 z" /></clipPath><linearGradient
       id="linearGradient858"
       spreadMethod="pad"
       gradientTransform="matrix(-2956.15,4079.49,4079.49,2956.15,33707.2,8370.6)"
       gradientUnits="userSpaceOnUse"
       y2="0"
       x2="1"
       y1="0"
       x1="0"><stop
         id="stop854"
         offset="0"
         style="stop-opacity:1;stop-color:#3e8154" /><stop
         id="stop856"
         offset="1"
         style="stop-opacity:1;stop-color:#73b354" /></linearGradient><clipPath
       id="clipPath868"
       clipPathUnits="userSpaceOnUse"><path
         id="path866"
         d="M 39251.2,4541.7 37988,4659 l -451.5,1280.3 -1058.3,1850 -65.3,-521.6 -1056.8,2034.1 c 479.4,-420 2113.9,-2101.7 2220.7,-2173.9 574.8,-387.7 1674.4,-2586.2 1674.4,-2586.2 z" /></clipPath><linearGradient
       id="linearGradient876"
       spreadMethod="pad"
       gradientTransform="matrix(-2944.17,6006.9,6006.9,2944.17,38857.8,3750.9)"
       gradientUnits="userSpaceOnUse"
       y2="0"
       x2="1"
       y1="0"
       x1="0"><stop
         id="stop872"
         offset="0"
         style="stop-opacity:1;stop-color:#3e8154" /><stop
         id="stop874"
         offset="1"
         style="stop-opacity:1;stop-color:#73b354" /></linearGradient><clipPath
       id="clipPath886"
       clipPathUnits="userSpaceOnUse"><path
         id="path884"
         d="m 45453.5,3286.3 c 17.4,-45.1 46.9,-80.6 83.3,-109.2 1090.1,-104.6 2162.7,-217 3210.6,-337 236.3,283.8 298.2,750.3 -98.6,915.5 -157.2,65.4 -370.3,-39.8 -394.2,-201.2 -0.3,-16.4 -0.6,-32.8 -1.2,-49.2 -1.4,17 -1.2,33.4 1.2,49.2 5.7,214.1 1.2,437 -105.6,620.8 -115,197.6 -396,314.1 -576.1,175.1 -174,-134.5 -154.3,-400.4 -117.5,-618.5 -67.1,151.1 -252.2,236.5 -408.7,188.5 -156.5,-48 -263.8,-223.1 -236.6,-386 -52.8,189.7 -260.9,320.6 -452.7,284.2 -191.4,-36.5 -338.7,-234.7 -319.9,-430.9 -54.4,148.5 -206.9,263.3 -362,243.7 -155.1,-19.6 -279.7,-197.9 -222,-345 z" /></clipPath><linearGradient
       id="linearGradient894"
       spreadMethod="pad"
       gradientTransform="matrix(-717.632,-3661.91,3661.91,-717.632,47639,5630.7)"
       gradientUnits="userSpaceOnUse"
       y2="0"
       x2="1"
       y1="0"
       x1="0"><stop
         id="stop890"
         offset="0"
         style="stop-opacity:1;stop-color:#5f8f2d" /><stop
         id="stop892"
         offset="1"
         style="stop-opacity:1;stop-color:#6cba2f" /></linearGradient><clipPath
       id="clipPath904"
       clipPathUnits="userSpaceOnUse"><path
         id="path902"
         d="m 18517.7,3454.1 c 12.5,-41.7 20.1,-85.6 27,-128.4 -17.2,42.1 -25.7,85.1 -27,128.4 z m -755.2,-634.3 c 9.5,-9.1 19.5,-17.5 29.9,-25.2 584.9,17.9 1604.8,45.3 2837.8,61.9 -95.5,133.5 -268.5,207.8 -429.8,179.9 -58.3,154.7 -276.5,217.9 -406.8,118 62.2,64.8 62.4,180 0.6,245.1 -61.9,65.1 -175.5,69.6 -242.2,9.3 14.6,174.9 28.4,356.2 -29.5,521.6 -57.9,165.6 -208.3,311.5 -381.7,304.4 -168,-7.1 -297.7,-146.8 -402.2,-280.1 -113.8,-145.2 -226.1,-324.9 -220.9,-500.5 -12.5,41.7 -30,81 -57.2,114.6 -54.3,67.4 -160.4,100.5 -227.7,46.6 -64.6,-51.7 -62.9,-150.3 -48,-232.3 20.8,-113.9 62.9,-306.1 140.8,-425.1 28.4,-25.2 54.2,-52.1 75.8,-80.5 -28.4,18.5 -53.6,46.5 -75.8,80.5 -67.1,60 -148.8,110.6 -223.1,151.8 -127.2,70.6 -315,105.9 -393.9,-17.2 -54.2,-84.5 -18.8,-204 53.9,-272.8 z" /></clipPath><linearGradient
       id="linearGradient912"
       spreadMethod="pad"
       gradientTransform="matrix(-2947.92,1e-7,-1e-7,-2947.92,20630.2,3514.8)"
       gradientUnits="userSpaceOnUse"
       y2="0"
       x2="1"
       y1="0"
       x1="0"><stop
         id="stop908"
         offset="0"
         style="stop-opacity:1;stop-color:#81cb48" /><stop
         id="stop910"
         offset="1"
         style="stop-opacity:1;stop-color:#5ba445" /></linearGradient></defs><g
     transform="matrix(1.3333333,0,0,-1.3333333,0,2666.6667)"
     id="g10"><g
       transform="scale(0.1)"
       id="g12"><g
         id="g14"><g
           clip-path="url(#clipPath20)"
           id="g16"><g
             transform="scale(3.06748)"
             id="g22"><path
               id="path32"
               style="fill:url(#linearGradient30);fill-opacity:1;fill-rule:nonzero;stroke:none"
               d="M 9629.83,6520.01 H 0 V 3941.18 c 156.785,-76.9 637.948,436.49 1125.55,301.25 594.13,-164.79 1121.25,-707.68 1619.49,-940.35 3.88,-1.84 8.01,-3.67 12.21,-5.51 2.15,-1 4.38,-1.92 6.61,-2.84 4.45,-1.92 9.07,-3.84 13.94,-5.84 4.54,-1.84 9.24,-3.76 14.03,-5.59 13.2,-5.18 27.65,-10.52 43.24,-16.03 8.91,-3.18 18.24,-6.43 27.89,-9.69 3.8,-1.24 7.59,-2.57 11.55,-3.91 5.7,-1.86 11.47,-3.78 17.41,-5.77 4.3,-1.34 8.67,-2.77 13.04,-4.17 3.39,-1.17 6.85,-2.25 10.32,-3.36 3.87,-1.24 7.84,-2.48 11.88,-3.75 18.81,-6 38.7,-12.09 59.49,-18.29 8.75,-2.67 17.66,-5.25 26.74,-7.98 7.67,-2.29 15.52,-4.54 23.44,-6.85 0.49,-0.1 0.99,-0.26 1.48,-0.42 26.65,-7.76 54.71,-15.72 83.84,-23.8 19.48,-5.45 39.44,-10.92 59.99,-16.46 5.12,-1.34 10.23,-2.74 15.43,-4.18 10.4,-2.74 20.88,-5.57 31.52,-8.41 9.74,-2.61 19.56,-5.18 29.46,-7.85 11.73,-3.1 23.59,-6.26 35.65,-9.36 58.16,-15.19 119.48,-30.81 183.44,-46.81 7.01,-1.77 14.02,-3.53 21.13,-5.29 49.58,-12.35 100.73,-24.87 153.22,-37.65 15.03,-3.65 30.12,-7.24 45.38,-10.92 128.08,-30.81 263.57,-62.63 403.62,-94.77 53.37,-12.26 107.42,-24.61 162.06,-36.97 61.48,-13.85 123.52,-27.81 186.08,-41.73 30.02,-6.78 60.24,-13.46 90.53,-20.14 151.23,-33.55 304.22,-66.93 455.75,-99.66 14.6,-3.2 29.21,-6.26 43.71,-9.45 23.28,-4.93 46.46,-9.91 69.57,-14.94 19.95,-4.27 39.84,-8.5 59.72,-12.77 2.65,-0.59 5.22,-1.18 7.76,-1.67 14.71,-3.16 29.31,-6.26 43.82,-9.35 17.18,-3.65 34.26,-7.34 51.34,-10.92 12.94,-2.78 25.92,-5.51 38.8,-8.28 4.1,-0.92 8.24,-1.77 12.29,-2.58 32.76,-7.01 65.43,-13.95 97.76,-20.8 1.08,-0.26 2.16,-0.42 3.23,-0.65 h 0.07 c 28.07,-5.93 55.97,-11.87 83.62,-17.7 14.34,-3 28.69,-6.03 42.9,-9.03 18.97,-4.01 37.78,-7.92 56.53,-11.84 11.96,-2.51 23.93,-5.02 35.79,-7.53 4.57,-1.01 9.1,-1.92 13.53,-2.83 14.05,-2.94 27.91,-5.84 41.76,-8.77 13.86,-2.84 27.58,-5.77 41.27,-8.61 20.64,-4.24 41.01,-8.51 61.23,-12.75 17.24,-3.61 34.39,-7.2 51.31,-10.69 3,-0.68 5.87,-1.27 8.83,-1.86 19.3,-3.97 38.54,-7.98 57.54,-11.93 0.88,-0.16 1.79,-0.42 2.71,-0.59 10.4,-2.08 20.8,-4.23 31.03,-6.42 15.1,-3.1 29.96,-6.16 44.8,-9.26 25.33,-5.18 50.26,-10.36 74.75,-15.45 2.9,-0.59 5.7,-1.17 8.6,-1.76 15.52,-3.16 30.84,-6.32 46.03,-9.52 29.87,-6.16 59.17,-12.16 87.8,-18.03 62.98,-12.84 122.54,-25.03 178.32,-36.48 0.91,-0.16 1.83,-0.42 2.64,-0.48 9.26,-1.86 18.42,-3.75 27.42,-5.61 19.72,-4.01 38.92,-7.92 57.67,-11.77 0.58,-0.07 1.14,-0.26 1.72,-0.33 7.93,-1.59 15.78,-3.16 23.54,-4.76 3.88,-0.84 7.66,-1.59 11.44,-2.34 5.97,-1.18 11.8,-2.32 17.61,-3.59 65.82,-13.37 123.52,-24.97 171.8,-34.72 3.2,-0.59 6.36,-1.27 9.49,-1.92 3.13,-0.59 6.16,-1.24 9.22,-1.83 3.07,-0.58 6.03,-1.17 9,-1.86 0.75,-0.06 1.4,-0.22 2.15,-0.42 4.53,-0.91 9,-1.73 13.27,-2.64 7.6,-1.53 14.87,-3.03 21.81,-4.37 6.42,-1.34 12.62,-2.48 18.48,-3.65 16.34,-3.36 30.35,-6.1 42.09,-8.44 1.63,-0.33 3.29,-0.66 4.86,-1.01 3.94,-0.82 7.66,-1.5 11.05,-2.25 1.4,-0.26 2.8,-0.49 4.14,-0.75 11.28,-2.25 18.06,-3.69 20.11,-4.01 0.43,-0.17 0.69,-0.17 0.69,-0.17 l 137.64,-25.03 2620.16,-476.88 H 16300 V 6520.01 H 9629.83" /></g></g></g><g
         id="g34"><g
           clip-path="url(#clipPath40)"
           id="g36"><g
             transform="scale(3.06748)"
             id="g42"><path
               id="path50"
               style="fill:url(#radialGradient48);fill-opacity:1;fill-rule:nonzero;stroke:none"
               d="M 16300,1916.78 V 0.0331094 H 9629.84 V 1916.78 H 16300" /></g></g></g><g
         transform="scale(1.50625)"
         id="g52"><path
           id="path54"
           style="fill:#d1f0f3;fill-opacity:1;fill-rule:nonzero;stroke:none"
           d="M 8826.08,6170.55 C 7473.06,6023.63 6119.78,5876.77 4766.74,5729.85 v 455.64 c 1149.08,115.12 2298.35,230.04 3447.43,345.16 967.1,96.73 1934.43,193.63 2901.53,290.37 -1066.1,-36.9 -2132.27,-73.62 -3198.43,-110.51 -684.35,-23.64 -1368.47,-47.27 -2052.82,-70.9 -360.46,-12.56 -766.64,-5.92 -1097.71,88.58 v 392.39 c 749.87,69.71 1502.13,123.77 2255.73,162.53 3094.33,159.31 6210.73,58.65 9277.53,-301.26 -2491.3,-270.32 -4982.7,-540.83 -7473.92,-811.3" /></g><g
         transform="scale(1.81223)"
         id="g56"><path
           id="path58"
           style="fill:#d1f0f3;fill-opacity:1;fill-rule:nonzero;stroke:none"
           d="m 0,5162.38 v -272.15 c 1145.33,-104.85 2296.39,-145.41 3446.33,-155.83 1457.09,-13.14 2914.3,22.56 4371.51,39.39 1197.2,13.58 2394.16,14.41 3590.96,-35.59 496.2,-20.8 992.4,-50.32 1487.5,-91.43 815.9,-67.82 1629.3,-167.14 2435.9,-310.45 319.9,-56.67 640.4,-116.43 956.5,-191.47 3.8,-0.83 7.5,-1.83 11.3,-2.71 v 673.92 c -965.7,77.7 -1932.4,141.16 -2899.7,194.02 -2577,141.04 -5158.67,207.42 -7739.42,269.45 -151.97,3.69 -304.08,7.23 -456.18,10.92 C 3468.68,5331.95 1720.24,5372.67 0,5162.38" /></g><g
         id="g60"><g
           clip-path="url(#clipPath66)"
           id="g62"><g
             transform="scale(1.50625)"
             id="g68"><path
               id="path76"
               style="fill:url(#linearGradient74);fill-opacity:1;fill-rule:nonzero;stroke:none"
               d="M 10874.9,5369.29 10287.1,4765.34 16300,4288.59 14295.7,6514.12 13970,6317.47 c 0,0 -576.3,982.35 -826.8,1109.12 -789.3,-576.11 -2959,-1873.33 -2959,-1873.33 l 690.7,-183.97" /></g></g></g><g
         id="g78"><g
           clip-path="url(#clipPath84)"
           id="g80"><g
             transform="scale(1.29094)"
             id="g86"><path
               id="path94"
               style="fill:url(#linearGradient92);fill-opacity:1;fill-rule:nonzero;stroke:none"
               d="m 15335.2,8665.21 518.7,-1605.11 446.1,311.01 c 0,0 -672.5,1146.19 -964.8,1294.1" /></g></g></g><g
         transform="scale(1.08949)"
         id="g96"><path
           id="path98"
           style="fill:#d1f0f3;fill-opacity:1;fill-rule:nonzero;stroke:none"
           d="m 588.438,10484.3 20.372,-301.8 c 624.55,77.3 1252.48,183.1 1506.17,205.8 1136.98,101.9 2275.13,191.3 3413.88,271.9 1296.77,91.7 2594.01,171.2 3891.41,243.2 983.43,54.5 1966.83,104.5 2950.33,152.2 1309.6,63.4 2619.5,122.5 3929.4,181.4 -3697,603.4 -7486.51,991.4 -11309.06,1077.6 -0.33,0 -0.68,0.2 -1.01,0.2 -1228.92,27.7 -2461.04,24.3 -3694.86,-13.1 1775.18,-224.4 3884.77,-374.8 5933.32,-538.8 1416.67,-113.5 2804.51,-233.2 4032.21,-388.2 -491.1,-61.3 -1532.94,-153.5 -2444,-223.7 -515.4,-39.7 -988.48,-72.6 -1296.99,-88.7 -948.6,-49.5 -1896.77,-115 -2843.62,-195.5 -1295.49,-110.5 -2736.18,-186.4 -4087.552,-382.5" /></g><g
         id="g100"><g
           clip-path="url(#clipPath106)"
           id="g102"><g
             transform="scale(1.08949)"
             id="g108"><path
               id="path116"
               style="fill:url(#linearGradient114);fill-opacity:1;fill-rule:nonzero;stroke:none"
               d="m 16300,7128.38 c 0,0 -2612.9,1506.39 -3026,1904.83 C 12784.1,8974.93 9594.76,6810.16 9594.76,6810.16 L 16300,7128.38" /></g></g></g><g
         id="g118"><g
           clip-path="url(#clipPath124)"
           id="g120"><g
             transform="scale(2.80058)"
             id="g126"><path
               id="path134"
               style="fill:url(#linearGradient132);fill-opacity:1;fill-rule:nonzero;stroke:none"
               d="m 16300,2099.46 c 0,0 -1012.2,616.62 -1165.3,779.37 -191.4,-13.28 -1471.2,-793.3 -1471.2,-793.3 l 2636.5,13.93" /></g></g></g><g
         id="g136"><g
           clip-path="url(#clipPath142)"
           id="g138"><g
             transform="scale(1.81223)"
             id="g144"><path
               id="path152"
               style="fill:url(#linearGradient150);fill-opacity:1;fill-rule:nonzero;stroke:none"
               d="M 0,6671.05 V 2952.89 c 1001.61,50.21 2268.18,307.35 3458.9,602.85 673.09,167.03 1321.88,346.31 1885.05,507.44 522.37,-12.03 1134.43,-44.09 1798.86,-90.44 h 0.17 c 1297.3,-90.33 2794.3,-234.3 4214.02,-386.21 l 1.7,-0.11 c 2105.2,-225.14 4040,-467.5 4901.1,-577.97 h 0.6 c 13.4,-1.82 26.6,-3.53 39.6,-5.24 v 122.78 l -4435,807.18 -233,42.38 c 0,0 -0.5,0 -1.2,0.28 -3.4,0.55 -14.9,2.98 -34,6.78 -2.3,0.44 -4.5,0.83 -7,1.27 -5.8,1.27 -12.1,2.43 -18.7,3.81 -2.7,0.61 -5.5,1.16 -8.3,1.71 -19.8,3.97 -43.5,8.61 -71.2,14.29 -9.9,1.99 -20.4,4.09 -31.3,6.18 -11.7,2.26 -24,4.8 -36.9,7.4 -7.2,1.54 -14.8,2.92 -22.5,4.47 -1.2,0.33 -2.3,0.6 -3.6,0.71 -5,1.16 -10,2.16 -15.2,3.15 -5.2,0.99 -10.3,2.1 -15.6,3.09 -5.3,1.1 -10.8,2.26 -16.1,3.26 -81.7,16.49 -179.4,36.14 -290.8,58.76 -9.8,1.99 -19.7,3.98 -29.8,6.07 -6.4,1.27 -12.8,2.54 -19.4,3.98 -13.1,2.53 -26.4,5.35 -39.8,8.05 -1,0.11 -1.9,0.44 -2.9,0.55 -8,1.55 -16,3.26 -23.9,4.97 -16.1,3.26 -32.4,6.51 -48.9,9.88 -8.2,1.71 -16.5,3.42 -24.8,5.07 -15.3,3.15 -30.8,6.24 -46.5,9.5 -1.3,0.11 -2.9,0.55 -4.4,0.82 -23.6,4.8 -47.6,9.77 -72.1,14.74 -73.2,14.95 -149.9,30.62 -229.8,47.01 -48.4,9.93 -98,20.09 -148.6,30.52 -25.7,5.24 -51.6,10.59 -77.9,16.11 -4.9,0.99 -9.6,1.98 -14.5,2.98 -31.2,6.34 -62.7,12.85 -94.6,19.53 -10.6,2.26 -21.2,4.36 -32,6.62 -25.1,5.25 -50.2,10.43 -75.8,15.67 -17.3,3.54 -34.9,7.23 -52.5,10.87 -1.6,0.28 -3.1,0.72 -4.6,1 -32.18,6.68 -64.73,13.46 -97.4,20.2 -5.02,0.99 -9.88,1.98 -14.96,3.14 -28.75,5.9 -57.66,11.97 -86.85,18.1 -34.21,7.06 -68.87,14.23 -103.63,21.57 -23.18,4.81 -46.41,9.77 -69.86,14.57 -23.45,4.97 -46.9,9.88 -70.68,14.85 -7.51,1.54 -15.18,3.09 -22.91,4.8 -20.08,4.08 -40.33,8.33 -60.58,12.74 -31.73,6.63 -63.57,13.25 -95.69,20.03 -24.17,5.08 -48.34,10.21 -72.61,15.29 -46.8,9.88 -94.03,19.92 -141.54,29.96 h -0.11 c -1.82,0.39 -3.65,0.66 -5.47,1.11 -54.74,11.58 -979.95,210.01 -1024.48,219.89 -51.26,11.31 -1094.73,518.26 -1145.55,529.74 -105.9,23.56 -1270.98,30.12 -1343.6,48.89 -28.8,7.39 -57,14.56 -84.92,21.9 -20.42,5.24 -40.51,10.6 -60.35,15.84 -16.76,4.53 -33.38,8.88 -49.86,13.3 -18.02,4.8 -35.76,9.6 -53.36,14.24 -8.8,2.42 -17.46,4.8 -26.12,7.06 -34.78,9.49 -68.57,18.82 -101.54,27.86 -37.02,10.32 -72.91,20.48 -107.55,30.41 -11.59,3.37 -23.05,6.62 -34.36,9.88 -0.84,0.27 -1.67,0.55 -2.52,0.71 -13.4,3.92 -26.67,7.73 -39.66,11.59 -15.37,4.64 -30.45,9 -45.26,13.52 -26.4,7.95 -51.96,15.73 -76.54,23.34 -8.1,2.54 -16.2,5.08 -24.16,7.62 -6.84,2.15 -13.55,4.25 -20.12,6.34 -5.86,1.88 -11.73,3.7 -17.46,5.69 -7.4,2.37 -14.8,4.8 -22.07,7.06 -10.05,3.37 -19.83,6.62 -29.46,9.77 -6.71,2.26 -13.13,4.52 -19.55,6.62 -16.35,5.52 -32.14,11.02 -47.22,16.39 -26.4,9.33 -50.84,18.37 -73.19,27.13 -8.1,3.11 -16.06,6.36 -23.74,9.47 -8.25,3.39 -16.07,6.64 -23.61,9.89 -3.77,1.55 -7.54,3.11 -11.17,4.8 -7.13,3.12 -14.11,6.22 -20.67,9.33 -297.23,138.91 -600.6,342.81 -912.78,561.14 -81.85,57.08 -164.25,115.3 -247.36,173.52 -212.58,149.08 -429.64,298.44 -651.86,432.83 -130.74,79.13 -263.43,153.03 -397.94,218.74 l -59.49,28.27 c -55.32,25.85 -110.91,50.16 -166.78,72.77 -99.87,40.41 -200.85,75.45 -302.96,103.86 -0.13,0 -0.28,0.14 -0.41,0.14 -0.56,0.14 -1.12,0.28 -1.68,0.42 C 1079.83,7409.9 265.383,6540.91 0,6671.05" /></g></g></g><g
         id="g154"><g
           clip-path="url(#clipPath160)"
           id="g156"><g
             transform="scale(1.81224)"
             id="g162"><path
               id="path170"
               style="fill:url(#linearGradient168);fill-opacity:1;fill-rule:nonzero;stroke:none"
               d="M 16300,7081.66 V 3003.69 l -39.7,4.8 h -0.5 l -242.7,28.53 -4499.8,530.78 -158.5,18.65 -1.9,0.11 -11.2,1.43 c 0,0 202,131.28 519.2,345.21 63.4,42.82 1103.9,1115.03 1274.3,1239.96 1.9,1.43 4,2.81 6.4,4.25 77.8,48.61 399.7,140.76 649.9,226.24 134.5,45.91 248.2,89.89 292.3,124.2 63.1,49.03 702.6,927.82 783,928.81 l 3.9,-0.85 c 316.7,-169.28 454.3,-202.35 454.3,-202.35 0,0 798.8,791.32 971,828.2" /></g></g></g><g
         id="g172"><g
           clip-path="url(#clipPath178)"
           id="g174"><g
             transform="scale(1.81223)"
             id="g180"><path
               id="path188"
               style="fill:url(#linearGradient186);fill-opacity:1;fill-rule:nonzero;stroke:none"
               d="m 4841.12,3521.52 6152.38,-658.47 4632.9,-495.85 c 0.8,0.11 1.7,0.11 2.5,0.11 29,1.16 354.7,16 671.1,68.98 v 566.92 c -13.1,1.71 -26.5,3.42 -40.2,5.24 l -4901.1,577.97 c -44.8,4.91 -89.9,9.71 -135,14.4 -44.6,4.63 -89.1,9.33 -133.8,14.13 -82.8,8.77 -165.9,17.38 -249.2,26.15 -6.4,0.66 -12.9,1.38 -19.3,1.99 -179.2,18.59 -359.2,36.97 -539.4,55.23 -51.4,5.24 -102.8,10.32 -154.2,15.4 -128.78,12.85 -257.4,25.44 -386.08,38.02 -108.93,10.59 -217.75,21.02 -326.4,31.23 -182.43,17.22 -364.25,34.05 -544.58,50.27 -25.71,2.26 -51.42,4.69 -76.97,6.95 -27.82,2.38 -55.46,4.8 -83.11,7.34 -34.92,3.09 -69.69,6.24 -104.45,9.16 -44.04,3.86 -87.74,7.67 -131.44,11.48 -43.71,3.64 -87.3,7.5 -130.89,11.14 -21.8,1.83 -43.43,3.7 -65.06,5.52 -65.11,5.36 -129.78,10.88 -194.29,16.12 -4.91,0.55 -9.82,0.82 -14.84,1.26 -102.53,8.34 -204.17,16.56 -305.04,24.45 -42.71,3.37 -85.31,6.62 -127.8,9.88 -20.53,1.54 -40.95,3.14 -61.47,4.69 -11.04,0.99 -22.19,1.65 -33.22,2.54 -51.54,3.81 -102.69,7.61 -153.68,11.42 -20.64,1.54 -41.33,2.98 -61.86,4.52 -20.53,1.44 -41.05,2.98 -61.47,4.42 -1.21,0.11 -2.48,0.27 -3.59,0.27 -19.31,1.27 -38.4,2.65 -57.72,4.09 -20.36,1.43 -40.77,2.81 -61.03,4.25 C 5972.76,3723.32 4841.12,3521.52 4841.12,3521.52" /></g></g></g><g
         id="g190"><g
           clip-path="url(#clipPath196)"
           id="g192"><g
             transform="scale(1.81223)"
             id="g198"><path
               id="path206"
               style="fill:url(#radialGradient204);fill-opacity:1;fill-rule:nonzero;stroke:none"
               d="M 16300,2633.83 V 1099.09 c 0,0 -16079.174,354.76 -16300,355.31 v 1179.43 c 1860.46,143.31 3637.93,228.12 5303.13,275.3 3932.14,111.79 7223.47,-45.69 9394.57,-169.3 290.7,-16.55 561.2,-33.22 810.6,-49.77 293.9,-19.31 558.5,-38.4 791.7,-56.23" /></g></g></g><g
         id="g208"><g
           clip-path="url(#clipPath214)"
           id="g210"><g
             transform="scale(1.81223)"
             id="g216"><path
               id="path224"
               style="fill:url(#radialGradient222);fill-opacity:1;fill-rule:nonzero;stroke:none"
               d="M 0,1531.76 V 209.191 c 0,0 12171.3,965.769 16300,30.349 v 2133.29 c -191.6,-0.39 -385.6,-1.99 -581.7,-4.36 -420.2,-5.25 -849.7,-14.68 -1285.7,-28.15 C 7936.75,2141.23 0,1531.76 0,1531.76" /></g></g></g><g
         id="g226"><g
           clip-path="url(#clipPath232)"
           id="g228"><g
             transform="scale(3.06748)"
             id="g234"><path
               id="path242"
               style="fill:url(#linearGradient240);fill-opacity:1;fill-rule:nonzero;stroke:none"
               d="M 0,422.66 V 0 H 16300 V 141.517 C 8870.28,766.689 0,422.66 0,422.66" /></g></g></g><g
         transform="scale(1.51577)"
         id="g244"><path
           id="path246"
           style="fill:#ffffff;fill-opacity:1;fill-rule:nonzero;stroke:none"
           d="m 9221.73,10899 c 133.67,496.1 578.06,891 1081.57,961.2 503.4,70.2 1036.8,-188.4 1298.2,-629.3 188.5,216 488.4,326.6 770.1,283.9 281.7,-42.7 536.4,-237.4 654,-499.8 380.5,312.6 1004.2,256.1 1323.7,-120 593.4,188.1 1166.5,296.3 1703.6,-20.8 142.3,-84.1 247.1,-255.7 247.1,-255.7 0,0 -4972.1,58.8 -8193.54,-31.6 239.42,347 733.62,485.3 1115.27,312.1" /></g><path
         id="path248"
         style="fill:#ffffff;fill-opacity:1;fill-rule:nonzero;stroke:none"
         d="m 7353.91,14276.7 c 147.35,350.4 499.77,602.8 875.41,627.1 375.63,24.2 756.87,-180.9 947.01,-509.6 189.78,249.6 493.92,406.2 805.07,414.6 311.1,8.3 623,-131.8 825.6,-370.9 317.3,302.2 904.7,221.8 1131.1,-154.9 568.1,326.9 1355.5,191.9 1785.4,-306.1 -1925.4,-83.6 -7453.4,-146.5 -7455.18,-163 131.6,432.7 687.6,669.7 1085.59,462.8" /><g
         transform="scale(1.58578)"
         id="g250"><path
           id="path252"
           style="fill:#ffffff;fill-opacity:1;fill-rule:nonzero;stroke:none"
           d="m 12792.4,8320.79 c 199.3,191.21 517.1,242.98 765.5,124.69 101.5,209.22 330,348.38 560.3,341.13 230.2,-7.25 449.7,-160.5 538.1,-375.7 170.9,167.33 485.6,143.64 630.1,-47.45 288.3,121.08 760,40.72 1013.6,-135.61 -143.8,-13.96 -3481.4,118.05 -3507.6,92.94" /></g><g
         transform="scale(1.16011)"
         id="g254"><path
           id="path256"
           style="fill:#ffffff;fill-opacity:1;fill-rule:nonzero;stroke:none"
           d="m 5086.04,15447.9 c 48.04,141.5 200.18,307.6 442.53,367.5 192.99,47.7 342.34,-41.3 342.34,-41.3 0,0 80.95,275 380.85,413.8 164,75.9 348.87,112.1 516.36,44.4 167.48,-67.7 303.24,-198.3 413.84,-342.4 231.28,219.7 665.32,142.1 808.24,-144.4 518.34,9.1 1117.87,-87.6 1527.92,-408.5 -10.17,51.6 -3659.88,132 -4432.08,110.9" /></g><g
         transform="scale(2.95933)"
         id="g258"><path
           id="path260"
           style="fill:#ffffff;fill-opacity:1;fill-rule:nonzero;stroke:none"
           d="m 14987.2,4685.91 c 30.4,95.31 103,163.98 180.4,170.57 77.5,6.59 156,-49.21 195.2,-138.6 39.1,67.89 101.8,110.49 165.9,112.75 64.2,2.27 128.5,-35.84 170.2,-100.88 65.4,82.21 186.5,60.33 233.1,-42.12 117.1,88.92 279.4,52.2 368,-83.27 -396.8,-22.73 -1536.2,-39.86 -1536.5,-44.33 27.1,117.68 141.7,182.15 223.7,125.88" /></g><g
         transform="scale(2.81137)"
         id="g262"><path
           id="path264"
           style="fill:#ffffff;fill-opacity:1;fill-rule:nonzero;stroke:none"
           d="m 12828.2,4178.56 c 197.2,189.26 511.8,240.5 757.7,123.41 100.4,207.1 326.6,344.84 554.5,337.66 227.9,-7.17 445.2,-158.87 532.7,-371.87 169.1,165.63 480.6,142.17 623.6,-46.96 285.4,119.84 752.2,40.31 1003.3,-134.24 -142.2,-13.81 -3445.9,116.85 -3471.8,92" /></g><g
         transform="scale(2.23045)"
         id="g266"><path
           id="path268"
           style="fill:#ffffff;fill-opacity:1;fill-rule:nonzero;stroke:none"
           d="m 16300,6588.75 c -32.5,95.49 -135.1,207.61 -298.6,248.02 -130.2,32.19 -231,-27.86 -231,-27.86 0,0 -54.7,185.5 -257,279.18 -110.7,51.23 -235.4,75.67 -348.5,30 -113,-45.67 -204.6,-133.83 -279.2,-231.1 -156.1,148.27 -449,95.95 -545.4,-97.41 -349.7,6.14 -754.3,-59.08 -1031,-275.64 6.9,34.81 2469.6,89.04 2990.7,74.81" /></g><g
         id="g270"><g
           clip-path="url(#clipPath276)"
           id="g272"><path
             id="path284"
             style="fill:url(#linearGradient282);fill-opacity:1;fill-rule:nonzero;stroke:none"
             d="m 641.098,9298 c -713.1957,-244.3 2848.722,-720.7 4638.752,728.6 182.81,148 421.34,283.2 773.49,130.3 l 13.15,-3.6 c 85.62,-23.7 166.88,-60.6 242.9,-106.9 351.35,-214.2 1616.9,-622.5 1821.12,-652.2 990.43,-144 2313.49,64.5 3198.19,135.2 -153.8,10.3 -461.4,-14.3 -573.6,13.6 -21.7,5.4 -115,3.5 -137.1,4.1 -184.5,4.7 -228.3,9 -359.2,20.6 -53.6,4.8 -103.3,26.4 -153.9,39.7 -37,9.5 -73.4,19.2 -109.36,28.7 -30.38,8.2 -60.5,16.1 -90.37,24.1 -32.65,8.7 -64.8,17.4 -96.69,25.8 -15.95,4.4 -31.64,8.7 -47.33,12.8 -63.03,17.2 -124.28,34.1 -184.02,50.5 -67.08,18.7 -132.13,37.1 -194.9,55.1 -21.01,6.1 -41.78,12 -62.27,17.9 -1.52,0.5 -3.04,1 -4.56,1.3 -24.3,7.1 -48.34,14 -71.88,21 -27.85,8.4 -55.19,16.3 -82.02,24.5 -47.84,14.4 -94.16,28.5 -138.71,42.3 -14.68,4.6 -29.36,9.2 -43.79,13.8 -12.4,3.9 -24.56,7.7 -36.45,11.5 -10.63,3.4 -21.26,6.7 -31.64,10.3 -13.42,4.3 -26.83,8.7 -40,12.8 -18.22,6.1 -35.94,12 -53.4,17.7 -12.15,4.1 -23.79,8.2 -35.43,12 -29.62,10 -58.23,20 -85.57,29.7 -47.83,16.9 -92.13,33.3 -132.63,49.2 -14.69,5.6 -29.1,11.5 -43.03,17.1 -14.94,6.2 -29.11,12.1 -42.78,18 -6.83,2.8 -13.67,5.6 -20.25,8.7 -12.91,5.6 -25.56,11.2 -37.46,16.9 -538.64,251.7 -1088.42,621.2 -1654.15,1016.9 -148.33,103.4 -297.67,208.9 -448.28,314.4 -385.25,270.2 -778.6,540.9 -1181.32,784.4 -236.93,143.4 -477.39,277.4 -721.15,396.4 l -107.82,51.2 -302.24,131.9 1126.84,-1456.2 c 86.03,-245.4 -1631.15,577.5 -1733.06,338.5 0,0 221.28,-1388.2 -2758.082,-2408.6" /></g></g><g
         id="g286"><g
           clip-path="url(#clipPath292)"
           id="g288"><path
             id="path300"
             style="fill:url(#linearGradient298);fill-opacity:1;fill-rule:nonzero;stroke:none"
             d="M 0,9374.9 V 5351.3 c 1815.14,91 4110.45,557 6268.32,1092.5 -445.5,290.9 -1361.55,770.8 -2723.34,919.3 C 1546.07,7581.3 644.707,8577.2 644.707,8577.2 L 0,9374.9" /></g></g><g
         id="g302"><g
           clip-path="url(#clipPath308)"
           id="g304"><g
             transform="scale(1.4027)"
             id="g310"><path
               id="path318"
               style="fill:url(#linearGradient316);fill-opacity:1;fill-rule:nonzero;stroke:none"
               d="m 16275.1,1421.62 c 8.3,-11.84 16.6,-23.74 24.9,-35.44 -7.2,12.84 -15.5,24.46 -24.9,35.44" /></g></g></g><g
         id="g320"><g
           clip-path="url(#clipPath326)"
           id="g322"><path
             id="path334"
             style="fill:url(#linearGradient332);fill-opacity:1;fill-rule:nonzero;stroke:none"
             d="m 0,5351.3 c 841.207,49.3 1709.54,82.1 2622.38,119.7 1640.2,67 3358.42,116.2 5020.15,151.9 l 3.3,0.2 c 0,0 4041.07,946.9 1165.87,1035.7 -2248.08,69.4 -4240.93,105.9 -4991.91,211.5 -88.78,-46.8 -186.78,-95.3 -292.72,-145.6 h -0.25 C 2678.35,6321.6 1337.11,5821.3 0,5351.3" /></g></g><g
         id="g336"><g
           clip-path="url(#clipPath342)"
           id="g338"><path
             id="path350"
             style="fill:url(#linearGradient348);fill-opacity:1;fill-rule:nonzero;stroke:none"
             d="m 2592.73,5288.6 c -2.53,-30.2 5.82,-59.7 28.35,-83.2 -11.39,27.1 -20.76,54.8 -28.35,83.2" /></g></g><g
         id="g352"><g
           clip-path="url(#clipPath358)"
           id="g354"><g
             transform="scale(1.72221)"
             id="g360"><path
               id="path368"
               style="fill:url(#linearGradient366);fill-opacity:1;fill-rule:nonzero;stroke:none"
               d="m 16297.9,2763.31 c -0.1,-6.68 0.6,-13.53 2.1,-20.5 -0.6,6.86 -1.3,13.65 -2.1,20.5" /></g></g></g><g
         id="g370"><g
           clip-path="url(#clipPath376)"
           id="g372"><path
             id="path384"
             style="fill:url(#linearGradient382);fill-opacity:1;fill-rule:nonzero;stroke:none"
             d="m 0,5351.3 c 841.207,49.3 1709.54,82.1 2622.38,119.7 501.76,678.3 1197.41,1399.3 1197.41,1399.3 -88.78,-46.8 -186.78,-95.3 -292.72,-145.6 h -0.25 C 2678.35,6321.6 1337.11,5821.3 0,5351.3" /></g></g><g
         id="g386"><g
           clip-path="url(#clipPath392)"
           id="g388"><g
             transform="scale(1.81224)"
             id="g394"><path
               id="path402"
               style="fill:url(#linearGradient400);fill-opacity:1;fill-rule:nonzero;stroke:none"
               d="m 16300,3003.25 v -417.99 c -1860.5,143.3 -3641.3,230.65 -5306.5,277.83 -341.9,9.77 -679,17.66 -1010.82,24.17 -2894.87,56.5 -5395.45,-4.69 -7295.43,-91.71 C 1569.73,2744.39 660.173,2684.19 0.06682,2633.87 v 319.11 C 1567.62,3031.5 3784.25,3616.96 5343.7,4063.04 c 0.15,0.17 0.29,0.17 0.29,0.17 522.4,-12.03 1134.41,-44.09 1798.83,-90.44 20.25,-1.44 40.67,-2.82 61.08,-4.26 19.26,-1.37 38.41,-2.81 57.67,-4.08 1.1,0 2.37,-0.16 3.64,-0.27 20.36,-1.44 40.89,-2.98 61.42,-4.42 20.52,-1.54 41.22,-2.92 61.91,-4.47 50.98,-3.7 102.08,-7.5 153.62,-11.47 11.04,-0.83 22.18,-1.55 33.22,-2.54 20.58,-1.55 40.94,-3.09 61.47,-4.69 42.49,-3.2 85.09,-6.46 127.8,-9.88 100.87,-7.89 202.67,-15.95 305.03,-24.45 5.08,-0.38 9.83,-0.71 14.85,-1.27 64.5,-5.24 129.18,-10.59 194.29,-16.11 21.63,-1.82 43.26,-3.64 65.06,-5.52 43.59,-3.64 87.18,-7.44 130.88,-11.14 43.71,-3.7 87.47,-7.51 131.44,-11.43 34.77,-2.97 69.53,-6.12 104.46,-9.21 27.64,-2.37 55.35,-4.8 83.1,-7.34 25.61,-2.26 51.26,-4.69 76.98,-6.9 180.33,-16.27 362.2,-32.94 544.57,-50.32 108.71,-10.21 217.47,-20.64 326.29,-31.23 128.79,-12.58 257.41,-25.16 386.2,-38.02 51.4,-5.08 102.6,-10.15 154.2,-15.4 180,-18.1 360.1,-36.58 539.4,-55.23 6.5,-0.61 12.9,-1.27 19.3,-1.99 83.2,-8.77 166.3,-17.38 249.2,-26.16 44.7,-4.8 89.3,-9.49 133.8,-14.12 45.1,-4.69 90.2,-9.49 135.1,-14.4 2105.1,-225.14 4039.9,-467.43 4901,-577.96 13.7,-1.82 27.1,-3.53 40.2,-5.24" /></g></g></g><g
         id="g404"><g
           clip-path="url(#clipPath410)"
           id="g406"><g
             transform="scale(1.81224)"
             id="g412"><path
               id="path420"
               style="fill:url(#linearGradient418);fill-opacity:1;fill-rule:nonzero;stroke:none"
               d="m 16300,3003.25 v -417.99 c -1860.5,143.3 -3641.3,230.65 -5306.5,277.83 -341.9,9.77 -679,17.66 -1010.82,24.17 -1718.7,590.81 -4638.69,1175.95 -4638.69,1175.95 522.4,-12.03 1134.41,-44.09 1798.83,-90.44 20.25,-1.44 40.67,-2.82 61.08,-4.26 19.26,-1.37 38.41,-2.81 57.67,-4.08 1.1,0 2.37,-0.16 3.64,-0.27 20.36,-1.44 40.89,-2.98 61.42,-4.42 20.52,-1.54 41.22,-2.92 61.91,-4.47 50.98,-3.7 102.08,-7.5 153.62,-11.47 11.04,-0.83 22.18,-1.55 33.22,-2.54 20.58,-1.55 40.94,-3.09 61.47,-4.69 42.49,-3.2 85.09,-6.46 127.8,-9.88 100.87,-7.89 202.67,-15.95 305.03,-24.45 5.08,-0.38 9.83,-0.71 14.85,-1.27 64.5,-5.24 129.18,-10.59 194.29,-16.11 21.63,-1.82 43.26,-3.64 65.06,-5.52 43.59,-3.64 87.18,-7.44 130.88,-11.14 43.71,-3.7 87.47,-7.51 131.44,-11.43 34.77,-2.97 69.53,-6.12 104.46,-9.21 27.64,-2.37 55.35,-4.8 83.1,-7.34 25.61,-2.26 51.26,-4.69 76.98,-6.9 180.33,-16.27 362.2,-32.94 544.57,-50.32 108.71,-10.21 217.47,-20.64 326.29,-31.23 128.79,-12.58 257.41,-25.16 386.2,-38.02 51.4,-5.08 102.6,-10.15 154.2,-15.4 180,-18.1 360.1,-36.58 539.4,-55.23 6.5,-0.61 12.9,-1.27 19.3,-1.99 83.2,-8.77 166.3,-17.38 249.2,-26.16 44.7,-4.8 89.3,-9.49 133.8,-14.12 45.1,-4.69 90.2,-9.49 135.1,-14.4 2105.1,-225.14 4039.9,-467.43 4901,-577.96 13.7,-1.82 27.1,-3.53 40.2,-5.24" /></g></g></g><g
         id="g422"><g
           clip-path="url(#clipPath428)"
           id="g424"><path
             id="path436"
             style="fill:url(#linearGradient434);fill-opacity:1;fill-rule:nonzero;stroke:none"
             d="m 9756.88,1164.6 c 1233.62,81.7 2571.52,164.2 4008.82,245.9 109.1,160.7 164.4,369.7 145,641.5 -24.8,313.1 -250,633.8 -560.1,650.6 -221,11.9 -419.3,-203.4 -433.8,-409.5 20.7,-77.6 46.3,-153 77.4,-227.1 -61.5,64.3 -84.3,144.6 -77.4,227.1 -98.1,360.6 -106.3,749.1 -241.7,1099.9 -163.7,424.8 -670.7,790.3 -1051.3,545 -368.8,-236.9 -289.4,-795.2 -165.7,-1219.4 -56.7,203.4 -337.1,278.9 -516.7,170.6 -179.6,-108.4 -257.6,-339.7 -242.4,-551.4 14.5,-211 105,-408.1 195.5,-598.8 -232.1,129.9 -475.9,263.4 -741.2,265.5 -264.5,2.1 -551.15,-176.8 -573.24,-444.4 -11.74,-151 63.54,-292.8 176.82,-395.5" /></g></g><g
         id="g438"><g
           clip-path="url(#clipPath444)"
           id="g440"><g
             transform="scale(2.4727)"
             id="g446"><path
               id="path454"
               style="fill:url(#linearGradient452);fill-opacity:1;fill-rule:nonzero;stroke:none"
               d="m 15475.7,415.294 c 1.7,-1.576 3.5,-3.072 5.3,-4.447 42,-2.387 772,-65.597 808.8,-70.449 17.3,82.298 11.2,174.465 -10.8,255.066 -10.3,37.61 -27,77.08 -60.8,95.886 -30.5,16.946 -71.4,11.89 -97,-11.97 -14.8,-13.832 -23.7,-33.364 -25.9,-53.585 2.7,-14.318 4.8,-28.714 6.5,-43.233 -6.1,13.508 -8.1,28.552 -6.5,43.233 -37.3,204.634 -169.3,386.985 -340.4,503.985 -18.1,12.37 -39.2,24.67 -60.7,20.5 -27.4,-5.34 -43,-34.66 -51.3,-61.63 -25.3,-82.22 -18.8,-171.758 3.7,-254.824 22.5,-82.986 60.3,-160.836 97.9,-238.121 -26.1,39.755 -67.5,68.873 -113.4,79.751 -27.9,6.592 -60.8,5.177 -80.7,-15.651 -17.3,-18.116 -20.2,-46.629 -13.5,-70.894 5.9,-21.069 17.8,-39.753 30.3,-57.669 2.1,-2.507 4,-5.177 5.7,-8.088 -1.9,2.668 -3.8,5.377 -5.7,8.088 -24.4,29.037 -76.8,28.631 -102.2,-1.092 -27.5,-32.233 -20.6,-86.343 10.7,-114.856" /></g></g></g><g
         id="g456"><g
           clip-path="url(#clipPath462)"
           id="g458"><g
             transform="scale(1.61546)"
             id="g464"><path
               id="path472"
               style="fill:url(#linearGradient470);fill-opacity:1;fill-rule:nonzero;stroke:none"
               d="m 14096.2,555.569 c 777.6,-10.151 1511,-34.602 2174.8,-77.191 85.1,205.514 -21.3,502.394 -272.2,581.132 -131.2,41.17 -296.3,-23.15 -337.8,-155.743 20.8,86.912 41.6,176.363 29.3,264.943 -12.4,88.58 -65.6,177.35 -150.1,203.84 -65.7,20.67 -142.5,-2.1 -187,-55.28 -44.2,-53.17 -53.5,-133.64 -22.2,-195.73 -59.6,117.98 -225,163.11 -337.3,95.39 -112.4,-67.91 -153,-231.822 -89.2,-347.455 -74.9,93.039 -223.7,113.466 -320.3,43.64 -96.5,-69.579 -126.1,-218.513 -63.4,-320.465 -82.1,55.712 -172.3,114.023 -270.7,106.036 -75.3,-6.19 -146.7,-73.228 -153.9,-143.117" /></g></g></g><g
         id="g474"><g
           clip-path="url(#clipPath480)"
           id="g476"><g
             transform="scale(1.81224)"
             id="g482"><path
               id="path490"
               style="fill:url(#linearGradient488);fill-opacity:1;fill-rule:nonzero;stroke:none"
               d="m 16300,7081.66 v -142.01 l -270,-1129.19 -392.9,32.79 -308.1,410.21 c 0,0 798.8,791.32 971,828.2" /></g></g></g><g
         id="g492"><g
           clip-path="url(#clipPath498)"
           id="g494"><g
             transform="scale(1.65378)"
             id="g500"><path
               id="path508"
               style="fill:url(#linearGradient506);fill-opacity:1;fill-rule:nonzero;stroke:none"
               d="m 16300,7074.39 -242.9,-2151.73 -361.4,1075.84 -578.4,-77.09 c 147.4,50.31 272,98.5 320.4,136.1 69.1,53.73 769.8,1016.72 858,1017.81 l 4.3,-0.93" /></g></g></g><g
         id="g510"><g
           clip-path="url(#clipPath516)"
           id="g512"><g
             transform="scale(1.47526)"
             id="g518"><path
               id="path526"
               style="fill:url(#linearGradient524);fill-opacity:1;fill-rule:nonzero;stroke:none"
               d="m 16300,4577.51 -305.6,645.04 -883.4,-645.04 -958.6,-192.92 -199,21.08 -2.3,0.14 -13.7,1.76 c 0,0 248.1,161.26 637.8,424.06 77.8,52.6 1355.9,1369.73 1565.2,1523.19 2.5,1.77 5.1,3.46 8,5.22 L 16300,4577.51" /></g></g></g><g
         id="g528"><g
           clip-path="url(#clipPath534)"
           id="g530"><path
             id="path542"
             style="fill:url(#linearGradient540);fill-opacity:1;fill-rule:nonzero;stroke:none"
             d="m 13778,1164.6 c 0,0 519.3,1348.1 1156.2,1774.4 C 13934.8,1344.9 13778,1164.6 13778,1164.6" /></g></g><g
         id="g544"><g
           clip-path="url(#clipPath550)"
           id="g546"><path
             id="path558"
             style="fill:url(#linearGradient556);fill-opacity:1;fill-rule:nonzero;stroke:none"
             d="m 13445.3,859.699 c 0,0 875.9,1143.801 1606.1,1369.801 C 13646.1,987.699 13445.3,859.699 13445.3,859.699" /></g></g><g
         id="g560"><g
           clip-path="url(#clipPath566)"
           id="g562"><path
             id="path574"
             style="fill:url(#linearGradient572);fill-opacity:1;fill-rule:nonzero;stroke:none"
             d="m 8824.47,2961.3 c 0,0 846.12,-1166.5 860.11,-1939 -793.74,1708.4 -860.11,1939 -860.11,1939" /></g></g><g
         id="g576"><g
           clip-path="url(#clipPath582)"
           id="g578"><path
             id="path590"
             style="fill:url(#linearGradient588);fill-opacity:1;fill-rule:nonzero;stroke:none"
             d="m 9413.35,3044.9 c 0,0 484.37,-1361.4 281.24,-2106.201 C 9412.35,2804.7 9413.35,3044.9 9413.35,3044.9" /></g></g><g
         id="g592"><g
           clip-path="url(#clipPath598)"
           id="g594"><g
             transform="scale(1.63687)"
             id="g600"><path
               id="path608"
               style="fill:url(#linearGradient606);fill-opacity:1;fill-rule:nonzero;stroke:none"
               d="m 16299.3,1603.85 c 0,0 18.8,-883.695 -242,-1275.052 195.2,1136.192 242,1275.052 242,1275.052" /></g></g></g><g
         id="g610"><g
           clip-path="url(#clipPath616)"
           id="g612"><g
             transform="scale(1.66929)"
             id="g618"><path
               id="path626"
               style="fill:url(#linearGradient624);fill-opacity:1;fill-rule:nonzero;stroke:none"
               d="m 16300,1408.86 c 0,0 -225.2,-836.341 -578,-1130.956 495.9,1013.486 578,1130.956 578,1130.956" /></g></g></g><g
         id="g628"><g
           clip-path="url(#clipPath634)"
           id="g630"><g
             transform="scale(3.06748)"
             id="g636"><path
               id="path644"
               style="fill:url(#linearGradient642);fill-opacity:1;fill-rule:nonzero;stroke:none"
               d="m 16300,1151.92 -5372.7,375.42 -1297.46,247.21 v 287.66 L 16300,1387.36 v -232.08 -3.36" /></g></g></g><g
         id="g646"><g
           clip-path="url(#clipPath652)"
           id="g648"><g
             transform="scale(3.06748)"
             id="g654"><path
               id="path662"
               style="fill:url(#linearGradient660);fill-opacity:1;fill-rule:nonzero;stroke:none"
               d="M 16300,1151.92 V 744.128 L 9629.84,1527.34 v 247.21 L 16300,1155.28 v -3.36" /></g></g></g><g
         id="g664"><g
           clip-path="url(#clipPath670)"
           id="g666"><g
             transform="scale(2.40805)"
             id="g672"><path
               id="path680"
               style="fill:url(#linearGradient678);fill-opacity:1;fill-rule:nonzero;stroke:none"
               d="m 16300,1886.05 -584.3,54.23 -3448.8,320.22 -70.6,2666.36 70.6,402.62 c 17.4,-3.72 43,-17.44 74.6,-38.71 204.6,-137.29 656.2,-584.57 656.2,-584.57 0,0 886.5,-509.18 934,-546.08 19.4,-14.98 56.3,-32.42 103.8,-51.15 34.1,-13.62 -76.9,-347.13 -34.5,-361.7 188.3,-64.37 581.3,185.71 639.9,149.12 1.7,-1.08 3.3,-2.12 4.8,-3.2 9.1,-6.68 21.4,-16.9 36.7,-30.31 l 0.1,-0.09 c 199,-174.41 877.8,-872.78 922.2,-902.76 238.7,-161 695.3,-1073.98 695.3,-1073.98" /></g></g></g><g
         id="g682"><g
           clip-path="url(#clipPath688)"
           id="g684"><g
             transform="scale(3.06748)"
             id="g690"><path
               id="path698"
               style="fill:url(#radialGradient696);fill-opacity:1;fill-rule:nonzero;stroke:none"
               d="M 16300,920.168 V 300.409 C 11686,1312.8 9602.27,1401.77 9602.27,1401.77 l 27.57,125.57 c 0,0 3360.46,-263.31 6670.16,-607.172" /></g></g></g><g
         id="g700"><g
           clip-path="url(#clipPath706)"
           id="g702"><g
             transform="scale(2.06324)"
             id="g708"><path
               id="path716"
               style="fill:url(#linearGradient714);fill-opacity:1;fill-rule:nonzero;stroke:none"
               d="m 15863.8,2494.67 163.6,-66.79 -829.4,-121.26 -386.2,75.12 -597.1,-204.58 -175.5,250.72 -667.8,165.81 129.7,102.41 -665.8,88.26 -72.9,65.38 650,1044.23 51.7,-404.5 13.2,237.15 574.6,820.94 88.7,-80.07 176.4,669.24 627.7,-1108.21 88.7,102.51 297.5,-358.71 c 0,0 525.6,-672.73 550.9,-775.24 25.4,-102.41 418.2,-447.45 418.2,-447.45 l -436.2,-54.96" /></g></g></g><g
         id="g718"><g
           clip-path="url(#clipPath724)"
           id="g720"><g
             transform="scale(1.75826)"
             id="g726"><path
               id="path734"
               style="fill:url(#linearGradient732);fill-opacity:1;fill-rule:nonzero;stroke:none"
               d="m 15842.8,3163.7 457.2,969.71 -812.8,-922.56 355.6,-47.15" /></g></g></g><g
         id="g736"><g
           clip-path="url(#clipPath742)"
           id="g738"><g
             transform="scale(1.79928)"
             id="g744"><path
               id="path752"
               style="fill:url(#linearGradient750);fill-opacity:1;fill-rule:nonzero;stroke:none"
               d="m 15758.7,2868.49 c -3.8,0.94 392.8,779.53 392.8,779.53 l 148.5,-1151.46 -201.1,287.56 -340.2,84.37" /></g></g></g><g
         id="g754"><g
           clip-path="url(#clipPath760)"
           id="g756"><g
             transform="scale(1.90433)"
             id="g762"><path
               id="path770"
               style="fill:url(#linearGradient768);fill-opacity:1;fill-rule:nonzero;stroke:none"
               d="m 16300,2531.4 -231.7,837.3 -285.2,-878.89 264.6,90.63 252.3,-49.04" /></g></g></g><g
         id="g772"><g
           clip-path="url(#clipPath778)"
           id="g774"><g
             transform="scale(2.06324)"
             id="g780"><path
               id="path788"
               style="fill:url(#linearGradient786);fill-opacity:1;fill-rule:nonzero;stroke:none"
               d="m 16300,2549.63 -436.2,-54.96 -273.2,556.89 -61.8,-100.91 -441.6,975.31 -99.7,-124.85 -670.5,1335.62 637.2,-1089.02 79.2,83.32 297.5,-358.71 c 0,0 525.6,-672.73 550.9,-775.24 25.4,-102.41 418.2,-447.45 418.2,-447.45" /></g></g></g><g
         id="g790"><g
           clip-path="url(#clipPath796)"
           id="g792"><g
             transform="scale(1.81223)"
             id="g798"><path
               id="path806"
               style="fill:url(#linearGradient804);fill-opacity:1;fill-rule:nonzero;stroke:none"
               d="m 16099.1,5086.28 137,-138.78 63.9,900.75 -200.9,-761.97" /></g></g></g><g
         id="g808"><g
           clip-path="url(#clipPath814)"
           id="g810"><g
             transform="scale(1.73558)"
             id="g816"><path
               id="path824"
               style="fill:url(#linearGradient822);fill-opacity:1;fill-rule:nonzero;stroke:none"
               d="m 16190.5,4671.42 -168.9,-241.25 -15.6,-281.92 115.4,214.33 178.6,465.27 -109.5,-156.43" /></g></g></g><g
         id="g826"><g
           clip-path="url(#clipPath832)"
           id="g828"><g
             transform="scale(1.69772)"
             id="g834"><path
               id="path842"
               style="fill:url(#linearGradient840);fill-opacity:1;fill-rule:nonzero;stroke:none"
               d="m 16300,4732.34 -449.1,-1381.97 -252.3,33.45 -192,69.98 893.4,1278.54" /></g></g></g><g
         id="g844"><g
           clip-path="url(#clipPath850)"
           id="g846"><g
             transform="scale(2.07351)"
             id="g852"><path
               id="path860"
               style="fill:url(#linearGradient858);fill-opacity:1;fill-rule:nonzero;stroke:none"
               d="m 16300,4771.91 -572.4,129.06 -535.6,318.75 -459.3,124.12 -486.6,845.5 86.6,-44.96 c 237.6,-159.44 762,-678.89 762,-678.89 0,0 1029.6,-591.32 1084.8,-634.18 22.5,-17.39 65.3,-37.65 120.5,-59.4" /></g></g></g><g
         id="g862"><g
           clip-path="url(#clipPath868)"
           id="g864"><g
             transform="scale(2.40805)"
             id="g870"><path
               id="path878"
               style="fill:url(#linearGradient876);fill-opacity:1;fill-rule:nonzero;stroke:none"
               d="m 16300,1886.05 -524.6,48.71 -187.5,531.68 -439.5,768.25 -27.1,-216.6 -438.8,844.7 c 199,-174.41 877.8,-872.78 922.2,-902.76 238.7,-161 695.3,-1073.98 695.3,-1073.98" /></g></g></g><g
         id="g880"><g
           clip-path="url(#clipPath886)"
           id="g882"><g
             transform="scale(3.00221)"
             id="g888"><path
               id="path896"
               style="fill:url(#linearGradient894);fill-opacity:1;fill-rule:nonzero;stroke:none"
               d="m 15140,1094.63 c 5.8,-15.03 15.6,-26.85 27.8,-36.38 363.1,-34.84 720.3,-72.275 1069.4,-112.246 78.7,94.526 99.3,249.916 -32.9,304.946 -52.3,21.78 -123.3,-13.26 -131.3,-67.02 -0.1,-5.46 -0.2,-10.93 -0.4,-16.39 -0.4,5.66 -0.4,11.13 0.4,16.39 1.9,71.31 0.4,145.56 -35.1,206.78 -38.3,65.82 -131.9,104.62 -191.9,58.32 -58,-44.8 -51.4,-133.36 -39.2,-206.01 -22.3,50.33 -84,78.77 -136.1,62.79 -52.1,-15.99 -87.9,-74.32 -78.8,-128.58 -17.6,63.19 -86.9,106.79 -150.8,94.67 -63.8,-12.16 -112.8,-78.18 -106.6,-143.53 -18.1,49.46 -68.9,87.7 -120.5,81.17 -51.7,-6.52 -93.2,-65.91 -74,-114.91" /></g></g></g><g
         id="g898"><g
           clip-path="url(#clipPath904)"
           id="g900"><g
             transform="scale(1.26566)"
             id="g906"><path
               id="path914"
               style="fill:url(#linearGradient912);fill-opacity:1;fill-rule:nonzero;stroke:none"
               d="m 14630.9,2729.1 c 9.9,-32.95 15.9,-67.64 21.3,-101.45 -13.6,33.26 -20.3,67.24 -21.3,101.45 z m -596.7,-501.16 c 7.5,-7.2 15.4,-13.83 23.6,-19.91 462.2,14.14 1268,35.79 2242.2,48.9 -75.5,105.48 -212.1,164.19 -339.6,142.14 -46,122.23 -218.4,172.17 -321.4,93.23 49.1,51.2 49.3,142.22 0.5,193.66 -48.9,51.44 -138.7,54.99 -191.4,7.35 11.5,138.18 22.5,281.43 -23.3,412.12 -45.7,130.84 -164.6,246.11 -301.6,240.5 -132.7,-5.61 -235.2,-115.99 -317.8,-221.31 -89.9,-114.72 -178.6,-256.7 -174.5,-395.44 -9.9,32.95 -23.7,63.99 -45.2,90.54 -42.9,53.26 -126.7,79.41 -179.9,36.82 -51,-40.85 -49.7,-118.75 -37.9,-183.54 16.4,-89.99 49.7,-241.85 111.2,-335.87 22.5,-19.91 42.9,-41.17 59.9,-63.61 -22.4,14.62 -42.3,36.74 -59.9,63.61 -53,47.4 -117.5,87.38 -176.2,119.94 -100.5,55.78 -248.9,83.67 -311.3,-13.59 -42.8,-66.77 -14.8,-161.18 42.6,-215.54" /></g></g></g></g></g></svg>